<svg width="306" height="261" viewBox="0 0 306 261" fill="none" xmlns="http://www.w3.org/2000/svg">
<path d="M18.864 230.148C17.896 230.148 17.16 229.78 16.656 229.044C16.152 228.308 15.9 227.236 15.9 225.828C15.9 224.412 16.152 223.336 16.656 222.6C17.16 221.864 17.896 221.496 18.864 221.496C19.832 221.496 20.568 221.864 21.072 222.6C21.576 223.328 21.828 224.4 21.828 225.816C21.828 227.232 21.576 228.308 21.072 229.044C20.568 229.78 19.832 230.148 18.864 230.148ZM18.864 229.32C19.536 229.32 20.032 229.036 20.352 228.468C20.672 227.9 20.832 227.016 20.832 225.816C20.832 224.608 20.672 223.728 20.352 223.176C20.04 222.616 19.544 222.336 18.864 222.336C18.192 222.336 17.696 222.616 17.376 223.176C17.056 223.736 16.896 224.616 16.896 225.816C16.896 227.016 17.056 227.9 17.376 228.468C17.696 229.036 18.192 229.32 18.864 229.32Z" fill="#7C828A"/>
<path d="M7.33201 142.115V142.943H1.88401V142.199L4.84801 138.935C5.24801 138.487 5.53601 138.087 5.71201 137.735C5.89601 137.375 5.98801 137.015 5.98801 136.655C5.98801 136.191 5.85201 135.835 5.58001 135.587C5.30801 135.339 4.92401 135.215 4.42801 135.215C3.61201 135.215 2.81201 135.539 2.02801 136.187L1.65601 135.431C1.99201 135.111 2.41201 134.859 2.91601 134.675C3.42801 134.483 3.94001 134.387 4.45201 134.387C5.22801 134.387 5.84001 134.587 6.28801 134.987C6.74401 135.387 6.97201 135.927 6.97201 136.607C6.97201 137.095 6.86001 137.563 6.63601 138.011C6.42001 138.459 6.06001 138.959 5.55601 139.511L3.15601 142.115H7.33201ZM12.0193 137.639C12.5553 137.639 13.0193 137.751 13.4113 137.975C13.8113 138.199 14.1193 138.515 14.3353 138.923C14.5513 139.323 14.6593 139.787 14.6593 140.315C14.6593 140.851 14.5393 141.323 14.2993 141.731C14.0673 142.139 13.7353 142.459 13.3033 142.691C12.8713 142.915 12.3673 143.027 11.7913 143.027C11.2793 143.027 10.7713 142.935 10.2673 142.751C9.77133 142.559 9.35133 142.303 9.00733 141.983L9.37933 141.227C10.1633 141.875 10.9673 142.199 11.7913 142.199C12.3833 142.199 12.8473 142.031 13.1833 141.695C13.5193 141.359 13.6873 140.903 13.6873 140.327C13.6873 139.767 13.5193 139.315 13.1833 138.971C12.8553 138.627 12.4153 138.455 11.8633 138.455C11.0553 138.455 10.4113 138.783 9.93133 139.439H9.24733V134.483H14.3233V135.299H10.2193V138.311C10.4433 138.095 10.7073 137.931 11.0113 137.819C11.3233 137.699 11.6593 137.639 12.0193 137.639ZM18.8546 143.039C17.8866 143.039 17.1506 142.671 16.6466 141.935C16.1426 141.199 15.8906 140.127 15.8906 138.719C15.8906 137.303 16.1426 136.227 16.6466 135.491C17.1506 134.755 17.8866 134.387 18.8546 134.387C19.8226 134.387 20.5586 134.755 21.0626 135.491C21.5666 136.219 21.8186 137.291 21.8186 138.707C21.8186 140.123 21.5666 141.199 21.0626 141.935C20.5586 142.671 19.8226 143.039 18.8546 143.039ZM18.8546 142.211C19.5266 142.211 20.0226 141.927 20.3426 141.359C20.6626 140.791 20.8226 139.907 20.8226 138.707C20.8226 137.499 20.6626 136.619 20.3426 136.067C20.0306 135.507 19.5346 135.227 18.8546 135.227C18.1826 135.227 17.6866 135.507 17.3666 136.067C17.0466 136.627 16.8866 137.507 16.8866 138.707C16.8866 139.907 17.0466 140.791 17.3666 141.359C17.6866 141.927 18.1826 142.211 18.8546 142.211Z" fill="#7C828A"/>
<path d="M4.82401 50.529C5.36001 50.529 5.82401 50.641 6.21601 50.865C6.61601 51.089 6.92401 51.405 7.14001 51.813C7.35601 52.213 7.46401 52.677 7.46401 53.205C7.46401 53.741 7.34401 54.213 7.10401 54.621C6.87201 55.029 6.54001 55.349 6.10801 55.581C5.67601 55.805 5.17201 55.917 4.59601 55.917C4.08401 55.917 3.57601 55.825 3.07201 55.641C2.57601 55.449 2.15601 55.193 1.81201 54.873L2.18401 54.117C2.96801 54.765 3.77201 55.089 4.59601 55.089C5.18801 55.089 5.65201 54.921 5.98801 54.585C6.32401 54.249 6.49201 53.793 6.49201 53.217C6.49201 52.657 6.32401 52.205 5.98801 51.861C5.66001 51.517 5.22001 51.345 4.66801 51.345C3.86001 51.345 3.21601 51.673 2.73601 52.329H2.05201V47.373H7.12801V48.189H3.02401V51.201C3.24801 50.985 3.51201 50.821 3.81601 50.709C4.12801 50.589 4.46401 50.529 4.82401 50.529ZM11.6593 55.929C10.6913 55.929 9.95533 55.561 9.45133 54.825C8.94733 54.089 8.69533 53.017 8.69533 51.609C8.69533 50.193 8.94733 49.117 9.45133 48.381C9.95533 47.645 10.6913 47.277 11.6593 47.277C12.6273 47.277 13.3633 47.645 13.8673 48.381C14.3713 49.109 14.6233 50.181 14.6233 51.597C14.6233 53.013 14.3713 54.089 13.8673 54.825C13.3633 55.561 12.6273 55.929 11.6593 55.929ZM11.6593 55.101C12.3313 55.101 12.8273 54.817 13.1473 54.249C13.4673 53.681 13.6273 52.797 13.6273 51.597C13.6273 50.389 13.4673 49.509 13.1473 48.957C12.8353 48.397 12.3393 48.117 11.6593 48.117C10.9873 48.117 10.4913 48.397 10.1713 48.957C9.85133 49.517 9.69133 50.397 9.69133 51.597C9.69133 52.797 9.85133 53.681 10.1713 54.249C10.4913 54.817 10.9873 55.101 11.6593 55.101ZM18.8546 55.929C17.8866 55.929 17.1506 55.561 16.6466 54.825C16.1426 54.089 15.8906 53.017 15.8906 51.609C15.8906 50.193 16.1426 49.117 16.6466 48.381C17.1506 47.645 17.8866 47.277 18.8546 47.277C19.8226 47.277 20.5586 47.645 21.0626 48.381C21.5666 49.109 21.8186 50.181 21.8186 51.597C21.8186 53.013 21.5666 54.089 21.0626 54.825C20.5586 55.561 19.8226 55.929 18.8546 55.929ZM18.8546 55.101C19.5266 55.101 20.0226 54.817 20.3426 54.249C20.6626 53.681 20.8226 52.797 20.8226 51.597C20.8226 50.389 20.6626 49.509 20.3426 48.957C20.0306 48.397 19.5346 48.117 18.8546 48.117C18.1826 48.117 17.6866 48.397 17.3666 48.957C17.0466 49.517 16.8866 50.397 16.8866 51.597C16.8866 52.797 17.0466 53.681 17.3666 54.249C17.6866 54.817 18.1826 55.101 18.8546 55.101Z" fill="#7C828A"/>
<path d="M52.6 247.612V256.072H51.232V250.48L49 254.704H47.968L45.724 250.54L45.736 256.072H44.368V247.612H45.592L48.496 253.144L51.388 247.612H52.6Z" fill="black"/>
<path d="M88.9479 248.884H86.1879V247.612H93.2559V248.884H90.4959V256.072H88.9479V248.884Z" fill="black"/>
<path d="M137.976 247.612L134.988 256.072H133.728L131.604 249.988L129.468 256.072H128.208L125.232 247.612H126.792L128.892 253.912L131.1 247.612H132.192L134.34 253.948L136.5 247.612H137.976Z" fill="black"/>
<path d="M170.967 248.884H168.207V247.612H175.275V248.884H172.515V256.072H170.967V248.884Z" fill="black"/>
<path d="M211.133 247.612H216.677V248.848H212.657V251.152H216.437V252.388H212.657V256.072H211.133V247.612Z" fill="black"/>
<path d="M255.385 256.18C254.737 256.18 254.129 256.092 253.561 255.916C252.993 255.74 252.513 255.492 252.121 255.172L252.637 254.044C253.045 254.356 253.473 254.584 253.921 254.728C254.377 254.872 254.869 254.944 255.397 254.944C255.981 254.944 256.429 254.844 256.741 254.644C257.061 254.436 257.221 254.148 257.221 253.78C257.221 253.46 257.073 253.216 256.777 253.048C256.489 252.88 256.005 252.72 255.325 252.568C254.621 252.416 254.049 252.24 253.609 252.04C253.169 251.84 252.837 251.584 252.613 251.272C252.389 250.96 252.277 250.564 252.277 250.084C252.277 249.588 252.413 249.144 252.685 248.752C252.957 248.36 253.341 248.056 253.837 247.84C254.333 247.616 254.905 247.504 255.553 247.504C256.145 247.504 256.709 247.596 257.245 247.78C257.781 247.956 258.221 248.2 258.565 248.512L258.049 249.64C257.297 249.04 256.465 248.74 255.553 248.74C255.009 248.74 254.577 248.852 254.257 249.076C253.945 249.292 253.789 249.596 253.789 249.988C253.789 250.316 253.929 250.568 254.209 250.744C254.489 250.92 254.965 251.084 255.637 251.236C256.349 251.396 256.925 251.576 257.365 251.776C257.813 251.968 258.153 252.216 258.385 252.52C258.625 252.824 258.745 253.208 258.745 253.672C258.745 254.176 258.609 254.62 258.337 255.004C258.073 255.38 257.685 255.672 257.173 255.88C256.669 256.08 256.073 256.18 255.385 256.18Z" fill="black"/>
<path d="M296.111 256.18C295.463 256.18 294.855 256.092 294.287 255.916C293.719 255.74 293.239 255.492 292.847 255.172L293.363 254.044C293.771 254.356 294.199 254.584 294.647 254.728C295.103 254.872 295.595 254.944 296.123 254.944C296.707 254.944 297.155 254.844 297.467 254.644C297.787 254.436 297.947 254.148 297.947 253.78C297.947 253.46 297.799 253.216 297.503 253.048C297.215 252.88 296.731 252.72 296.051 252.568C295.347 252.416 294.775 252.24 294.335 252.04C293.895 251.84 293.563 251.584 293.339 251.272C293.115 250.96 293.003 250.564 293.003 250.084C293.003 249.588 293.139 249.144 293.411 248.752C293.683 248.36 294.067 248.056 294.563 247.84C295.059 247.616 295.631 247.504 296.279 247.504C296.871 247.504 297.435 247.596 297.971 247.78C298.507 247.956 298.947 248.2 299.291 248.512L298.775 249.64C298.023 249.04 297.191 248.74 296.279 248.74C295.735 248.74 295.303 248.852 294.983 249.076C294.671 249.292 294.515 249.596 294.515 249.988C294.515 250.316 294.655 250.568 294.935 250.744C295.215 250.92 295.691 251.084 296.363 251.236C297.075 251.396 297.651 251.576 298.091 251.776C298.539 251.968 298.879 252.216 299.111 252.52C299.351 252.824 299.471 253.208 299.471 253.672C299.471 254.176 299.335 254.62 299.063 255.004C298.799 255.38 298.411 255.672 297.899 255.88C297.395 256.08 296.799 256.18 296.111 256.18Z" fill="black"/>
<path d="M301.287 161.487H286.661C284.452 161.487 282.661 163.278 282.661 165.487V225.365C282.661 227.574 284.452 229.365 286.661 229.365H301.287C303.496 229.365 305.287 227.574 305.287 225.365V165.487C305.287 163.278 303.496 161.487 301.287 161.487Z" fill="#7388A9" fill-opacity="0.35"/>
<path d="M260.561 136.599H245.935C243.726 136.599 241.935 138.39 241.935 140.599V225.365C241.935 227.574 243.726 229.365 245.935 229.365H260.561C262.77 229.365 264.561 227.574 264.561 225.365V140.599C264.561 138.39 262.77 136.599 260.561 136.599Z" fill="#7388A9" fill-opacity="0.35"/>
<path d="M219.834 94.741H205.208C202.999 94.741 201.208 96.5319 201.208 98.741V225.365C201.208 227.574 202.999 229.365 205.208 229.365H219.834C222.043 229.365 223.834 227.574 223.834 225.365V98.741C223.834 96.5319 222.043 94.741 219.834 94.741Z" fill="#7388A9" fill-opacity="0.35"/>
<path d="M179.107 150.174H164.481C162.272 150.174 160.481 151.965 160.481 154.174V225.365C160.481 227.574 162.272 229.365 164.481 229.365H179.107C181.316 229.365 183.107 227.574 183.107 225.365V154.174C183.107 151.965 181.316 150.174 179.107 150.174Z" fill="#7388A9" fill-opacity="0.35"/>
<path d="M138.381 57.408H123.755C121.546 57.408 119.755 59.1989 119.755 61.408V225.365C119.755 227.574 121.546 229.365 123.755 229.365H138.381C140.59 229.365 142.381 227.574 142.381 225.365V61.408C142.381 59.1989 140.59 57.408 138.381 57.408Z" fill="#FF715B"/>
<path d="M97.6541 119.629H83.0281C80.8189 119.629 79.0281 121.42 79.0281 123.629V225.364C79.0281 227.573 80.8189 229.364 83.0281 229.364H97.6541C99.8632 229.364 101.654 227.573 101.654 225.364V123.629C101.654 121.42 99.8632 119.629 97.6541 119.629Z" fill="#7388A9" fill-opacity="0.35"/>
<path d="M56.928 175.063H42.302C40.0929 175.063 38.302 176.854 38.302 179.063V225.365C38.302 227.574 40.0929 229.365 42.302 229.365H56.928C59.1371 229.365 60.928 227.574 60.928 225.365V179.063C60.928 176.854 59.1371 175.063 56.928 175.063Z" fill="#7388A9" fill-opacity="0.35"/>
<g filter="url(#filter0_d_1_2371)">
<path d="M194.639 7H62.97C53.7192 7 46.22 14.4992 46.22 23.75C46.22 33.0008 53.7192 40.5 62.97 40.5H194.639C203.89 40.5 211.389 33.0008 211.389 23.75C211.389 14.4992 203.89 7 194.639 7Z" fill="white"/>
</g>
<path d="M106.061 27.1055C105.882 27.1055 105.677 27.0957 105.446 27.0762C105.216 27.0605 104.981 27.0391 104.743 27.0117C104.505 26.9883 104.27 26.9609 104.04 26.9297C103.813 26.8984 103.612 26.8691 103.436 26.8418L103.53 26.0742C103.706 26.0977 103.905 26.1211 104.128 26.1445C104.35 26.168 104.575 26.1895 104.802 26.209C105.028 26.2285 105.247 26.2461 105.458 26.2617C105.673 26.2734 105.858 26.2793 106.015 26.2793C106.604 26.2793 107.046 26.1484 107.339 25.8867C107.632 25.6211 107.778 25.1992 107.778 24.6211C107.778 24.3867 107.745 24.1914 107.679 24.0352C107.616 23.8789 107.513 23.748 107.368 23.6426C107.224 23.5332 107.034 23.4434 106.8 23.373C106.569 23.2988 106.284 23.2285 105.944 23.1621C105.511 23.0723 105.132 22.9727 104.807 22.8633C104.487 22.7539 104.22 22.6133 104.005 22.4414C103.79 22.2656 103.628 22.0469 103.518 21.7852C103.413 21.5234 103.36 21.1934 103.36 20.7949C103.36 20.3926 103.423 20.0508 103.548 19.7695C103.677 19.4844 103.858 19.2539 104.093 19.0781C104.327 18.8984 104.608 18.7676 104.936 18.6855C105.268 18.6035 105.636 18.5625 106.038 18.5625C106.218 18.5625 106.419 18.5703 106.641 18.5859C106.864 18.6016 107.089 18.6211 107.315 18.6445C107.546 18.668 107.766 18.6934 107.977 18.7207C108.192 18.748 108.382 18.7754 108.546 18.8027L108.464 19.582C108.284 19.5625 108.083 19.541 107.86 19.5176C107.638 19.4941 107.417 19.4727 107.198 19.4531C106.979 19.4336 106.772 19.418 106.577 19.4062C106.382 19.3906 106.222 19.3828 106.097 19.3828C105.518 19.3828 105.073 19.4922 104.761 19.7109C104.452 19.9258 104.298 20.2676 104.298 20.7363C104.298 21.0059 104.335 21.2246 104.409 21.3926C104.483 21.5605 104.602 21.6992 104.766 21.8086C104.931 21.918 105.14 22.0098 105.393 22.084C105.651 22.1543 105.962 22.2285 106.325 22.3066C106.739 22.4043 107.097 22.5078 107.397 22.6172C107.698 22.7266 107.946 22.8652 108.141 23.0332C108.337 23.1973 108.481 23.4004 108.575 23.6426C108.669 23.8848 108.716 24.1875 108.716 24.5508C108.716 25.0117 108.653 25.4043 108.528 25.7285C108.407 26.0488 108.231 26.3125 108.001 26.5195C107.774 26.7227 107.497 26.8711 107.169 26.9648C106.841 27.0586 106.472 27.1055 106.061 27.1055ZM111.464 27.1172C110.913 27.1172 110.493 26.9648 110.204 26.6602C109.915 26.3516 109.77 25.8926 109.77 25.2832C109.77 24.709 109.921 24.2832 110.222 24.0059C110.526 23.7246 110.987 23.5586 111.604 23.5078L113.491 23.3262V22.8105C113.491 22.3926 113.399 22.0996 113.216 21.9316C113.032 21.7598 112.763 21.6738 112.407 21.6738C112.255 21.6738 112.079 21.6797 111.88 21.6914C111.684 21.6992 111.483 21.7109 111.276 21.7266C111.069 21.7422 110.866 21.7598 110.667 21.7793C110.468 21.7949 110.292 21.8105 110.14 21.8262L110.104 21.1465C110.245 21.1191 110.411 21.0898 110.602 21.0586C110.798 21.0273 111.001 21 111.212 20.9766C111.423 20.9492 111.636 20.9277 111.85 20.9121C112.069 20.8926 112.272 20.8828 112.46 20.8828C113.136 20.8828 113.626 21.041 113.931 21.3574C114.235 21.6738 114.388 22.1582 114.388 22.8105V25.8691C114.399 26.0488 114.47 26.1777 114.599 26.2559C114.731 26.334 114.893 26.3828 115.085 26.4023L115.05 27.1172C114.921 27.1172 114.792 27.1094 114.663 27.0938C114.534 27.082 114.407 27.0586 114.282 27.0234C114.157 26.9883 114.038 26.9395 113.925 26.877C113.815 26.8145 113.714 26.7363 113.62 26.6426C113.503 26.6934 113.36 26.7461 113.192 26.8008C113.028 26.8555 112.85 26.9062 112.659 26.9531C112.472 27 112.274 27.0391 112.067 27.0703C111.864 27.1016 111.663 27.1172 111.464 27.1172ZM111.604 26.3613C111.768 26.3613 111.938 26.3496 112.114 26.3262C112.29 26.3027 112.462 26.2734 112.63 26.2383C112.798 26.2031 112.956 26.1641 113.104 26.1211C113.253 26.0781 113.382 26.0352 113.491 25.9922V24.0117L111.716 24.1816C111.349 24.2168 111.087 24.3223 110.931 24.498C110.774 24.6738 110.696 24.9277 110.696 25.2598C110.696 25.6113 110.77 25.8828 110.919 26.0742C111.071 26.2656 111.3 26.3613 111.604 26.3613ZM116.239 18.3867H117.136V27H116.239V18.3867ZM121.056 27.1172C120.61 27.1172 120.235 27.0527 119.931 26.9238C119.626 26.791 119.38 26.5957 119.192 26.3379C119.009 26.0801 118.876 25.7598 118.794 25.377C118.716 24.9902 118.677 24.543 118.677 24.0352C118.677 23.4648 118.735 22.9805 118.852 22.582C118.974 22.1836 119.141 21.8594 119.356 21.6094C119.575 21.3555 119.839 21.1719 120.147 21.0586C120.46 20.9414 120.806 20.8828 121.184 20.8828C121.583 20.8828 121.932 20.9375 122.233 21.0469C122.538 21.1523 122.792 21.3203 122.995 21.5508C123.198 21.7773 123.35 22.0684 123.452 22.4238C123.557 22.7754 123.61 23.1973 123.61 23.6895L123.552 24.3691H119.591C119.595 24.6895 119.624 24.9727 119.679 25.2188C119.733 25.4609 119.821 25.6641 119.942 25.8281C120.067 25.9883 120.229 26.1094 120.429 26.1914C120.628 26.2734 120.876 26.3145 121.173 26.3145C121.337 26.3145 121.516 26.3125 121.712 26.3086C121.907 26.3008 122.104 26.291 122.304 26.2793C122.503 26.2676 122.694 26.2559 122.878 26.2441C123.065 26.2324 123.229 26.2207 123.37 26.209L123.393 26.9297C123.249 26.9492 123.077 26.9707 122.878 26.9941C122.682 27.0176 122.479 27.0371 122.268 27.0527C122.057 27.0723 121.847 27.0879 121.636 27.0996C121.425 27.1113 121.231 27.1172 121.056 27.1172ZM122.696 23.6543C122.696 23.2832 122.667 22.9688 122.608 22.7109C122.55 22.4531 122.458 22.2461 122.333 22.0898C122.212 21.9297 122.056 21.8145 121.864 21.7441C121.677 21.6738 121.45 21.6387 121.184 21.6387C120.931 21.6387 120.704 21.6758 120.505 21.75C120.306 21.8242 120.138 21.9414 120.001 22.1016C119.868 22.2617 119.766 22.4707 119.696 22.7285C119.626 22.9824 119.591 23.291 119.591 23.6543H122.696ZM126.874 27.1172C126.733 27.1172 126.571 27.1094 126.388 27.0938C126.204 27.082 126.015 27.0645 125.819 27.041C125.628 27.0176 125.438 26.9941 125.251 26.9707C125.067 26.9434 124.903 26.918 124.759 26.8945L124.811 26.1094C124.96 26.1328 125.124 26.1562 125.304 26.1797C125.487 26.2031 125.671 26.2246 125.854 26.2441C126.038 26.2637 126.212 26.2812 126.376 26.2969C126.544 26.3086 126.682 26.3145 126.792 26.3145C127.038 26.3145 127.255 26.2988 127.442 26.2676C127.63 26.2363 127.786 26.1816 127.911 26.1035C128.036 26.0215 128.13 25.9141 128.192 25.7812C128.259 25.6484 128.292 25.4824 128.292 25.2832C128.292 25.127 128.268 24.998 128.222 24.8965C128.175 24.7949 128.091 24.709 127.97 24.6387C127.852 24.5684 127.688 24.5078 127.477 24.457C127.27 24.4062 127.005 24.3574 126.681 24.3105C126.341 24.2559 126.046 24.1953 125.796 24.1289C125.546 24.0586 125.337 23.9629 125.169 23.8418C125.005 23.7207 124.882 23.5645 124.8 23.373C124.718 23.1777 124.677 22.9316 124.677 22.6348C124.677 22.3027 124.737 22.0254 124.858 21.8027C124.983 21.5801 125.145 21.4004 125.345 21.2637C125.548 21.127 125.778 21.0293 126.036 20.9707C126.298 20.9121 126.565 20.8828 126.839 20.8828C127.003 20.8828 127.182 20.8906 127.378 20.9062C127.573 20.918 127.768 20.9355 127.964 20.959C128.159 20.9824 128.347 21.0078 128.526 21.0352C128.71 21.0586 128.87 21.082 129.007 21.1055L128.983 21.8906C128.839 21.8672 128.675 21.8457 128.491 21.8262C128.307 21.8027 128.12 21.7812 127.929 21.7617C127.737 21.7422 127.55 21.7266 127.366 21.7148C127.186 21.7031 127.026 21.6973 126.886 21.6973C126.698 21.6973 126.524 21.7109 126.364 21.7383C126.208 21.7656 126.071 21.8145 125.954 21.8848C125.841 21.9512 125.751 22.043 125.684 22.1602C125.622 22.2773 125.591 22.4258 125.591 22.6055C125.591 22.7461 125.61 22.8633 125.649 22.957C125.692 23.0469 125.77 23.127 125.884 23.1973C126.001 23.2637 126.159 23.3223 126.358 23.373C126.561 23.4238 126.821 23.4766 127.138 23.5312C127.513 23.5938 127.831 23.6641 128.093 23.7422C128.354 23.8203 128.567 23.9219 128.731 24.0469C128.895 24.1719 129.015 24.3301 129.089 24.5215C129.163 24.7129 129.2 24.9551 129.2 25.248C129.2 25.5996 129.145 25.8945 129.036 26.1328C128.931 26.3711 128.776 26.5645 128.573 26.7129C128.374 26.8574 128.13 26.9609 127.841 27.0234C127.556 27.0859 127.233 27.1172 126.874 27.1172ZM132.833 18.6973H133.759V27H132.833V18.6973ZM135.64 21H136.542V21.4219C136.643 21.3633 136.766 21.3027 136.911 21.2402C137.056 21.1777 137.21 21.1211 137.374 21.0703C137.542 21.0156 137.714 20.9707 137.89 20.9355C138.065 20.9004 138.235 20.8828 138.399 20.8828C138.809 20.8828 139.145 20.9375 139.407 21.0469C139.673 21.1523 139.88 21.3223 140.028 21.5566C140.177 21.791 140.278 22.0957 140.333 22.4707C140.391 22.8418 140.421 23.2949 140.421 23.8301V27H139.518V23.8535C139.518 23.459 139.503 23.125 139.472 22.8516C139.444 22.5742 139.386 22.3496 139.296 22.1777C139.206 22.0059 139.075 21.8809 138.903 21.8027C138.735 21.7246 138.513 21.6855 138.235 21.6855C138.079 21.6855 137.919 21.6992 137.755 21.7266C137.595 21.7539 137.438 21.791 137.286 21.8379C137.138 21.8809 136.999 21.9297 136.87 21.9844C136.741 22.0352 136.632 22.084 136.542 22.1309V27H135.64V21ZM141.534 21H142.507L143.901 26.2207H144.341L145.794 21H146.72L145.026 27H143.216L141.534 21ZM150.182 27.1172C149.679 27.1172 149.261 27.0547 148.929 26.9297C148.6 26.8008 148.337 26.6055 148.138 26.3438C147.942 26.0781 147.806 25.7461 147.727 25.3477C147.649 24.9453 147.61 24.4727 147.61 23.9297C147.61 23.4141 147.655 22.9648 147.745 22.582C147.835 22.1992 147.981 21.8828 148.184 21.6328C148.388 21.3789 148.653 21.1914 148.981 21.0703C149.309 20.9453 149.71 20.8828 150.182 20.8828C150.659 20.8828 151.059 20.9453 151.384 21.0703C151.712 21.1914 151.977 21.3789 152.181 21.6328C152.384 21.8828 152.528 22.1992 152.614 22.582C152.704 22.9648 152.749 23.4141 152.749 23.9297C152.749 24.4727 152.71 24.9453 152.632 25.3477C152.554 25.7461 152.417 26.0781 152.222 26.3438C152.03 26.6055 151.768 26.8008 151.436 26.9297C151.108 27.0547 150.69 27.1172 150.182 27.1172ZM150.182 26.3379C150.534 26.3379 150.817 26.293 151.032 26.2031C151.247 26.1094 151.413 25.9668 151.53 25.7754C151.647 25.5801 151.725 25.3301 151.765 25.0254C151.804 24.7207 151.823 24.3555 151.823 23.9297C151.823 23.5117 151.798 23.1582 151.747 22.8691C151.696 22.5801 151.606 22.3477 151.477 22.1719C151.352 21.9922 151.184 21.8633 150.974 21.7852C150.763 21.7031 150.499 21.6621 150.182 21.6621C149.866 21.6621 149.6 21.7031 149.386 21.7852C149.175 21.8633 149.007 21.9922 148.882 22.1719C148.757 22.3477 148.667 22.5801 148.612 22.8691C148.561 23.1582 148.536 23.5117 148.536 23.9297C148.536 24.3555 148.556 24.7207 148.595 25.0254C148.634 25.3301 148.712 25.5801 148.829 25.7754C148.946 25.9668 149.112 26.1094 149.327 26.2031C149.542 26.293 149.827 26.3379 150.182 26.3379ZM154.214 18.5977H155.116V19.6582H154.214V18.5977ZM154.214 21H155.116V27H154.214V21ZM159.071 27.1172C158.595 27.1172 158.198 27.0605 157.882 26.9473C157.565 26.8301 157.311 26.6445 157.12 26.3906C156.929 26.1328 156.794 25.7988 156.716 25.3887C156.638 24.9785 156.599 24.4805 156.599 23.8945C156.599 23.3516 156.643 22.8887 156.733 22.5059C156.827 22.123 156.974 21.8125 157.173 21.5742C157.376 21.332 157.636 21.1562 157.952 21.0469C158.268 20.9375 158.649 20.8828 159.095 20.8828C159.196 20.8828 159.315 20.8887 159.452 20.9004C159.593 20.9121 159.737 20.9277 159.886 20.9473C160.034 20.9629 160.182 20.9805 160.331 21C160.479 21.0195 160.612 21.0391 160.729 21.0586L160.694 21.8027C160.593 21.791 160.477 21.7793 160.349 21.7676C160.22 21.752 160.089 21.7383 159.956 21.7266C159.827 21.7148 159.702 21.7051 159.581 21.6973C159.46 21.6895 159.358 21.6855 159.276 21.6855C158.932 21.6855 158.647 21.7246 158.421 21.8027C158.194 21.8809 158.015 22.0078 157.882 22.1836C157.749 22.3594 157.655 22.5879 157.6 22.8691C157.55 23.1504 157.524 23.4922 157.524 23.8945C157.524 24.3398 157.546 24.7168 157.589 25.0254C157.636 25.3301 157.722 25.5781 157.847 25.7695C157.975 25.9609 158.155 26.0996 158.386 26.1855C158.616 26.2715 158.917 26.3145 159.288 26.3145C159.374 26.3145 159.475 26.3125 159.593 26.3086C159.714 26.3008 159.839 26.291 159.968 26.2793C160.097 26.2676 160.225 26.2559 160.354 26.2441C160.483 26.2324 160.6 26.2207 160.706 26.209L160.741 26.9531C160.62 26.9688 160.483 26.9863 160.331 27.0059C160.182 27.0254 160.032 27.043 159.88 27.0586C159.727 27.0781 159.579 27.0918 159.434 27.0996C159.294 27.1113 159.173 27.1172 159.071 27.1172ZM164.204 27.1172C163.759 27.1172 163.384 27.0527 163.079 26.9238C162.774 26.791 162.528 26.5957 162.341 26.3379C162.157 26.0801 162.024 25.7598 161.942 25.377C161.864 24.9902 161.825 24.543 161.825 24.0352C161.825 23.4648 161.884 22.9805 162.001 22.582C162.122 22.1836 162.29 21.8594 162.505 21.6094C162.724 21.3555 162.987 21.1719 163.296 21.0586C163.608 20.9414 163.954 20.8828 164.333 20.8828C164.731 20.8828 165.081 20.9375 165.382 21.0469C165.686 21.1523 165.94 21.3203 166.143 21.5508C166.347 21.7773 166.499 22.0684 166.6 22.4238C166.706 22.7754 166.759 23.1973 166.759 23.6895L166.7 24.3691H162.739C162.743 24.6895 162.772 24.9727 162.827 25.2188C162.882 25.4609 162.97 25.6641 163.091 25.8281C163.216 25.9883 163.378 26.1094 163.577 26.1914C163.776 26.2734 164.024 26.3145 164.321 26.3145C164.485 26.3145 164.665 26.3125 164.86 26.3086C165.056 26.3008 165.253 26.291 165.452 26.2793C165.651 26.2676 165.843 26.2559 166.026 26.2441C166.214 26.2324 166.378 26.2207 166.518 26.209L166.542 26.9297C166.397 26.9492 166.225 26.9707 166.026 26.9941C165.831 27.0176 165.628 27.0371 165.417 27.0527C165.206 27.0723 164.995 27.0879 164.784 27.0996C164.573 27.1113 164.38 27.1172 164.204 27.1172ZM165.845 23.6543C165.845 23.2832 165.815 22.9688 165.757 22.7109C165.698 22.4531 165.606 22.2461 165.481 22.0898C165.36 21.9297 165.204 21.8145 165.013 21.7441C164.825 21.6738 164.599 21.6387 164.333 21.6387C164.079 21.6387 163.852 21.6758 163.653 21.75C163.454 21.8242 163.286 21.9414 163.149 22.1016C163.016 22.2617 162.915 22.4707 162.845 22.7285C162.774 22.9824 162.739 23.291 162.739 23.6543H165.845Z" fill="black"/>
<path d="M72.736 15.72V17.256L67.616 27H65.424L70.528 17.384H64.88V15.72H72.736ZM82.7618 24.792H81.1778V27H79.1618V24.792H74.2658V23.272L79.5138 15.72H81.1778V23.192H82.7618V24.792ZM79.1618 23.192V18.888L76.1858 23.192H79.1618Z" fill="black"/>
<defs>
<filter id="filter0_d_1_2371" x="38.22" y="0" width="181.169" height="49.5" filterUnits="userSpaceOnUse" color-interpolation-filters="sRGB">
<feFlood flood-opacity="0" result="BackgroundImageFix"/>
<feColorMatrix in="SourceAlpha" type="matrix" values="0 0 0 0 0 0 0 0 0 0 0 0 0 0 0 0 0 0 127 0" result="hardAlpha"/>
<feOffset dy="1"/>
<feGaussianBlur stdDeviation="4"/>
<feColorMatrix type="matrix" values="0 0 0 0 0.32549 0 0 0 0 0.333333 0 0 0 0 0.607843 0 0 0 0.176 0"/>
<feBlend mode="normal" in2="BackgroundImageFix" result="effect1_dropShadow_1_2371"/>
<feBlend mode="normal" in="SourceGraphic" in2="effect1_dropShadow_1_2371" result="shape"/>
</filter>
</defs>
</svg>
