<svg width="24" height="21" viewBox="0 0 24 21" fill="none" xmlns="http://www.w3.org/2000/svg">
<path d="M12 6.44256e-09C11.8558 0.000116539 11.7131 0.0288105 11.58 0.0844231C11.447 0.140036 11.3263 0.221463 11.225 0.324L0.22497 9.924C0.132413 9.99209 0.0637459 10.0877 0.0287785 10.1971C-0.00618886 10.3066 -0.00566702 10.4243 0.0302695 10.5335C0.066206 10.6426 0.135718 10.7376 0.228875 10.8048C0.322031 10.8721 0.434065 10.9082 0.54897 10.908H3.27297V19.635C3.27297 19.9244 3.38791 20.2019 3.59252 20.4065C3.79712 20.6111 4.07462 20.726 4.36397 20.726H7.63597C7.92532 20.726 8.20282 20.6111 8.40742 20.4065C8.61203 20.2019 8.72697 19.9244 8.72697 19.635V13.091H15.272V19.636C15.272 19.9254 15.3869 20.2029 15.5915 20.4075C15.7961 20.6121 16.0736 20.727 16.363 20.727H19.636C19.9253 20.727 20.2028 20.6121 20.4074 20.4075C20.612 20.2029 20.727 19.9254 20.727 19.636V10.909H23.454C23.5689 10.9092 23.6809 10.8731 23.7741 10.8058C23.8672 10.7386 23.9367 10.6436 23.9727 10.5345C24.0086 10.4253 24.0091 10.3076 23.9742 10.1981C23.9392 10.0887 23.8705 9.99309 23.778 9.925L19.636 6.311V3.273C19.636 2.98365 19.521 2.70615 19.3164 2.50155C19.1118 2.29694 18.8343 2.182 18.545 2.182C18.2556 2.182 17.9781 2.29694 17.7735 2.50155C17.5689 2.70615 17.454 2.98365 17.454 3.273V4.406L12.782 0.33L12.776 0.324C12.6745 0.221344 12.5536 0.139847 12.4204 0.0842304C12.2872 0.0286141 12.1443 -1.568e-05 12 6.44256e-09Z" fill="#707070"/>
</svg>
