<svg width="32" height="24" viewBox="0 0 32 24" fill="none" xmlns="http://www.w3.org/2000/svg">
<path d="M2.00032 -4.87777e-05C1.73637 -0.00479358 1.47417 0.0436965 1.22937 0.142526C0.984577 0.241356 0.762206 0.388498 0.575535 0.575169C0.388864 0.76184 0.241722 0.984211 0.142892 1.22901C0.0440625 1.4738 -0.00442736 1.736 0.000317434 1.99995V22C-0.00442736 22.2639 0.0440625 22.5261 0.142892 22.7709C0.241722 23.0157 0.388864 23.2381 0.575535 23.4247C0.762206 23.6114 0.984577 23.7585 1.22937 23.8574C1.47417 23.9562 1.73637 24.0047 2.00032 24H15.3333V-4.87777e-05H2.00032ZM16.6673 -4.87777e-05V24H30.0003C30.2643 24.0047 30.5265 23.9562 30.7713 23.8574C31.0161 23.7585 31.2384 23.6114 31.4251 23.4247C31.6118 23.2381 31.7589 23.0157 31.8577 22.7709C31.9566 22.5261 32.0051 22.2639 32.0003 22V1.99995C32.0051 1.736 31.9566 1.4738 31.8577 1.22901C31.7589 0.984211 31.6118 0.76184 31.4251 0.575169C31.2384 0.388498 31.0161 0.241356 30.7713 0.142526C30.5265 0.0436965 30.2643 -0.00479358 30.0003 -4.87777e-05H16.6673ZM19.3343 4.66695H29.3343V5.99995H19.3343V4.66695ZM19.3343 7.99995H29.3343V9.33295H19.3343V7.99995ZM19.3343 11.333H29.3343V12.666H19.3343V11.333ZM19.3343 14.666H29.3343V16H19.3343V14.666ZM19.3343 17.999H29.3343V19.332H19.3343V17.999Z" fill="#707070"/>
</svg>
