<svg width="331" height="246" viewBox="0 0 331 246" fill="none" xmlns="http://www.w3.org/2000/svg">
<path d="M330.51 216.224H0.843994V216.389H330.51V216.224Z" fill="#E6E6E6"/>
<path d="M83.142 226.2H61.305V226.365H83.142V226.2Z" fill="#E6E6E6"/>
<path d="M54.395 226.2H41.742V226.365H54.395V226.2Z" fill="#E6E6E6"/>
<path d="M139.667 228.626H127.014V228.791H139.667V228.626Z" fill="#E6E6E6"/>
<path d="M205.639 232.305H177.162V232.47H205.639V232.305Z" fill="#E6E6E6"/>
<path d="M171.295 232.305H167.121V232.47H171.295V232.305Z" fill="#E6E6E6"/>
<path d="M299.752 228.626H237.986V228.791H299.752V228.626Z" fill="#E6E6E6"/>
<path d="M157.106 186.818H29.795C28.7977 186.816 27.8418 186.419 27.1373 185.713C26.4327 185.007 26.037 184.05 26.037 183.053V4.09101C26.0457 3.09941 26.4452 2.15127 27.1488 1.45252C27.8525 0.753763 28.8034 0.360814 29.795 0.359009H157.105C158.104 0.359009 159.061 0.755676 159.767 1.46175C160.473 2.16782 160.87 3.12547 160.87 4.12401V183.053C160.87 184.051 160.473 185.009 159.768 185.715C159.062 186.421 158.104 186.818 157.106 186.818ZM29.795 0.491009C28.8414 0.492863 27.9275 0.872967 27.2539 1.5479C26.5803 2.22283 26.202 3.13744 26.202 4.09101V183.053C26.202 184.007 26.5803 184.921 27.2539 185.596C27.9275 186.271 28.8414 186.651 29.795 186.653H157.105C158.059 186.651 158.974 186.271 159.649 185.597C160.323 184.922 160.703 184.007 160.705 183.053V4.09101C160.703 3.1368 160.323 2.2222 159.649 1.54747C158.974 0.872736 158.059 0.492859 157.105 0.491009H29.795Z" fill="#E6E6E6"/>
<path d="M299.726 186.818H172.409C171.411 186.816 170.454 186.419 169.748 185.714C169.043 185.008 168.646 184.051 168.644 183.053V4.09101C168.654 3.09869 169.055 2.15041 169.76 1.45179C170.465 0.753176 171.417 0.360535 172.409 0.359009H299.726C300.717 0.362391 301.666 0.756038 302.368 1.45462C303.071 2.15321 303.469 3.10044 303.478 4.09101V183.053C303.478 184.049 303.083 185.005 302.38 185.711C301.677 186.416 300.722 186.815 299.726 186.818ZM172.409 0.491009C171.455 0.492859 170.54 0.872736 169.865 1.54747C169.191 2.2222 168.811 3.1368 168.809 4.09101V183.053C168.811 184.007 169.191 184.922 169.865 185.597C170.54 186.271 171.455 186.651 172.409 186.653H299.726C300.68 186.651 301.595 186.271 302.27 185.597C302.944 184.922 303.324 184.007 303.326 183.053V4.09101C303.324 3.1368 302.944 2.2222 302.27 1.54747C301.595 0.872736 300.68 0.492859 299.726 0.491009H172.409Z" fill="#E6E6E6"/>
<path d="M177.15 159.904H162.651V217.418H177.15V159.904Z" fill="#E0E0E0"/>
<path d="M174.393 217.418H177.149V209.585H171.505L174.393 217.418Z" fill="#FAFAFA"/>
<path d="M113.616 159.904H99.117V217.418H113.616V159.904Z" fill="#E0E0E0"/>
<path d="M177.149 159.904H111.216V212.611H177.149V159.904Z" fill="#FAFAFA"/>
<path d="M174.756 162.495V176.44H113.589V162.495H174.735M174.992 162.238H113.352V176.691H175.012V162.238H174.992Z" fill="#E0E0E0"/>
<path d="M113.965 217.418H111.216V209.585H116.853L113.965 217.418Z" fill="#FAFAFA"/>
<path d="M142.726 169.464C142.726 169.752 142.811 170.034 142.972 170.273C143.132 170.513 143.359 170.7 143.625 170.81C143.892 170.92 144.185 170.949 144.467 170.893C144.75 170.837 145.01 170.698 145.213 170.494C145.417 170.291 145.556 170.031 145.612 169.748C145.668 169.466 145.639 169.173 145.529 168.906C145.419 168.64 145.232 168.413 144.992 168.253C144.753 168.092 144.471 168.007 144.183 168.007C143.797 168.007 143.426 168.161 143.153 168.434C142.88 168.707 142.726 169.078 142.726 169.464Z" fill="#E6E6E6"/>
<path d="M174.756 179.281V193.226H113.589V179.281H174.735M174.992 179.031H113.352V193.484H175.012V179.041L174.992 179.031Z" fill="#E0E0E0"/>
<path d="M142.726 186.29C142.726 186.578 142.811 186.86 142.972 187.099C143.132 187.339 143.359 187.526 143.625 187.636C143.892 187.746 144.185 187.775 144.467 187.719C144.75 187.663 145.01 187.524 145.213 187.32C145.417 187.117 145.556 186.857 145.612 186.574C145.668 186.292 145.639 185.999 145.529 185.732C145.419 185.466 145.232 185.239 144.992 185.079C144.753 184.918 144.471 184.833 144.183 184.833C143.797 184.833 143.426 184.987 143.153 185.26C142.88 185.533 142.726 185.904 142.726 186.29Z" fill="#E6E6E6"/>
<path d="M174.756 196.075V210.026H113.589V196.075H174.735M174.992 195.818H113.352V210.277H175.012V195.818H174.992Z" fill="#E0E0E0"/>
<path d="M142.726 203.051C142.728 203.388 142.846 203.714 143.061 203.973C143.276 204.233 143.574 204.41 143.905 204.474C144.236 204.538 144.579 204.486 144.875 204.326C145.172 204.166 145.403 203.908 145.531 203.596C145.659 203.284 145.675 202.938 145.576 202.616C145.477 202.294 145.269 202.016 144.988 201.829C144.708 201.643 144.371 201.56 144.036 201.594C143.701 201.628 143.388 201.777 143.15 202.016C143.015 202.152 142.907 202.314 142.835 202.491C142.762 202.669 142.725 202.859 142.726 203.051Z" fill="#E6E6E6"/>
<path d="M104.762 126.502H90.263V217.424H104.762V126.502Z" fill="#E0E0E0"/>
<path d="M102.005 217.418H104.764V209.585H99.124L102.005 217.418Z" fill="#FAFAFA"/>
<path d="M50.578 126.502H36.079V217.424H50.578V126.502Z" fill="#E0E0E0"/>
<path d="M104.761 126.502H48.171V212.617H104.761V126.502Z" fill="#FAFAFA"/>
<path d="M102.322 128.929V148.429H50.61V128.929H102.322ZM102.621 128.629H50.294V148.706H102.612V128.636L102.621 128.629Z" fill="#E0E0E0"/>
<path d="M102.321 150.805V202.516H77.692V150.805H102.325M102.625 150.505H77.392V202.823H102.625V150.502V150.505Z" fill="#E0E0E0"/>
<path d="M75.243 150.805V202.516H50.61V150.805H75.243ZM75.543 150.505H50.294V202.823H75.527V150.502L75.543 150.505Z" fill="#E0E0E0"/>
<path d="M50.927 217.418H48.171V209.585H53.815L50.927 217.418Z" fill="#FAFAFA"/>
<path d="M75.006 138.687C75.0046 138.977 75.0893 139.261 75.2493 139.502C75.4093 139.744 75.6375 139.933 75.9049 140.045C76.1723 140.156 76.4668 140.186 76.7513 140.131C77.0357 140.075 77.2973 139.936 77.5027 139.732C77.7081 139.527 77.8483 139.266 77.9053 138.982C77.9624 138.698 77.9338 138.403 77.8232 138.135C77.7126 137.867 77.525 137.638 77.2841 137.477C77.0432 137.316 76.7598 137.23 76.47 137.23C76.0829 137.23 75.7116 137.383 75.4373 137.656C75.1629 137.929 75.0078 138.3 75.006 138.687Z" fill="#E6E6E6"/>
<path d="M80.228 175.432C80.2297 175.769 80.3481 176.095 80.5631 176.354C80.7781 176.614 81.0764 176.791 81.4072 176.855C81.7379 176.919 82.0807 176.867 82.3772 176.707C82.6736 176.547 82.9055 176.289 83.0332 175.977C83.1609 175.665 83.1766 175.319 83.0777 174.997C82.9787 174.675 82.7712 174.397 82.4905 174.21C82.2097 174.024 81.8731 173.941 81.5378 173.975C81.2026 174.009 80.8896 174.158 80.652 174.397C80.3792 174.672 80.2268 175.044 80.228 175.432Z" fill="#E6E6E6"/>
<path d="M69.79 175.432C69.7917 175.769 69.9102 176.095 70.1252 176.354C70.3402 176.614 70.6384 176.791 70.9692 176.855C71.2999 176.919 71.6427 176.867 71.9392 176.707C72.2357 176.547 72.4675 176.289 72.5952 175.977C72.723 175.665 72.7387 175.319 72.6397 174.997C72.5408 174.675 72.3332 174.397 72.0525 174.21C71.7717 174.024 71.4351 173.941 71.0999 173.975C70.7647 174.009 70.4516 174.158 70.214 174.397C70.0786 174.533 69.9715 174.695 69.8987 174.872C69.826 175.05 69.789 175.24 69.79 175.432Z" fill="#E6E6E6"/>
<path d="M68.142 101.151H62.03C62.5934 104.116 62.9483 107.117 63.092 110.131C63.092 113.431 58.437 126.502 65.07 126.502C71.703 126.502 67.048 113.46 67.048 110.131C67.2023 107.116 67.5679 104.115 68.142 101.151Z" fill="#E0E0E0"/>
<path d="M44.887 114.522V118.478C44.8952 120.597 45.7407 122.627 47.2392 124.126C48.7377 125.624 50.7678 126.47 52.887 126.478H56.847C58.9662 126.47 60.9963 125.624 62.4949 124.126C63.9934 122.627 64.8389 120.597 64.847 118.478V114.522H44.887Z" fill="#F5F5F5"/>
<path d="M129.855 151.517C129.855 156.132 135.018 159.904 141.327 159.904H147.027C153.337 159.904 158.499 156.133 158.499 151.517H129.855Z" fill="#E0E0E0"/>
<path d="M280.803 144.753C275.794 149.108 271.539 154.261 268.21 160.003C265.173 165.057 263.314 170.731 262.771 176.603C262.771 169.021 262.817 160.878 262.844 153.19C263.721 151.212 265.725 146.649 267.163 143.049C271.956 131.029 273.756 128.069 278.063 117.704C283.819 103.858 289.713 87.467 288.026 88.779C284.584 91.449 271.398 116.141 269.973 119.679C266.091 129.11 263.691 139.085 262.859 149.25C262.859 141.997 262.912 135.404 262.938 130.288C263.03 113.6 263.314 108.214 263.452 106.552C263.986 105.708 264.612 104.726 264.982 104.198C268.082 99.715 269.274 95.904 272.189 89.218C276.33 79.757 279.889 62.95 278.848 63.794C274.51 67.328 271.094 74.91 266.598 84.583C262.102 94.256 263.387 99.814 262.498 108.068C262.313 109.69 262.168 115.809 262.063 124.281C260.903 115.248 258.714 109.301 254.725 103.894C249.82 97.241 245.072 92.751 241.591 90.404C238.11 88.057 247.604 104.395 252.14 111.504C256.182 117.86 259.907 123.458 262.03 128.976C261.918 140.468 261.865 155.013 261.865 168.536C260.901 162.381 259.217 156.361 256.849 150.599C254.119 144.428 249.926 134.96 246.583 131.749C245.783 130.978 250.077 149.393 252.833 154.285C255.589 159.177 257.613 163.799 259.347 166.575C259.747 167.234 261.094 169.72 261.859 171.157C261.859 187.686 261.951 202.271 262.096 207.236H262.808C262.762 205.957 262.749 197.544 262.768 186.414C264.489 180.375 268.418 173.478 271.662 167.188C275.199 160.379 284.258 141.95 280.803 144.753Z" fill="#E0E0E0"/>
<path d="M272.779 217.418H252.116L250.553 197.163H274.342L272.779 217.418Z" fill="#F0F0F0"/>
<path d="M275.878 199.523H249.01L248.245 192.686H276.645L275.878 199.523Z" fill="#F5F5F5"/>
<path d="M82.773 13.875H45.817V54.457H82.773V13.875Z" fill="#E0E0E0"/>
<path d="M86.774 13.875H48.599V54.457H86.774V13.875Z" fill="#F5F5F5"/>
<path d="M83.577 51.259V17.073L51.797 17.073V51.259H83.577Z" fill="white"/>
<path d="M75.869 42.965V25.354H59.498V42.965H75.869Z" fill="#F5F5F5"/>
<path d="M271.203 18.603H236.872V56.304H271.203V18.603Z" fill="#E0E0E0"/>
<path d="M274.922 18.603H239.463V56.304H274.922V18.603Z" fill="#F5F5F5"/>
<path d="M271.955 53.329V21.576L242.437 21.576V53.329H271.955Z" fill="white"/>
<path d="M257.192 46.664C262.279 46.664 266.403 42.5401 266.403 37.453C266.403 32.3659 262.279 28.242 257.192 28.242C252.105 28.242 247.981 32.3659 247.981 37.453C247.981 42.5401 252.105 46.664 257.192 46.664Z" fill="#F5F5F5"/>
<path d="M121.165 38.073H93.75V68.178H121.165V38.073Z" fill="#E0E0E0"/>
<path d="M124.132 38.073H95.814V68.178H124.132V38.073Z" fill="#F5F5F5"/>
<path d="M121.759 65.804V40.446H98.188V65.804H121.759Z" fill="white"/>
<path d="M109.976 46.71L103.528 57.879H116.428L109.976 46.71Z" fill="#F5F5F5"/>
<path d="M165.677 246C236.28 246 293.515 242.658 293.515 238.536C293.515 234.414 236.28 231.072 165.677 231.072C95.074 231.072 37.839 234.414 37.839 238.536C37.839 242.658 95.074 246 165.677 246Z" fill="#F5F5F5"/>
<path d="M231.116 71.85L224.571 69.213C224.571 69.213 215.94 84.951 213.471 85.749C210.108 86.83 203.146 89.837 199.018 90.364C198.269 91.379 197.79 92.568 197.627 93.819C203.172 95.672 215.356 93.212 217.967 91.274C223.909 86.876 231.116 71.85 231.116 71.85Z" fill="#E58A7B"/>
<path d="M233.127 68.271C234.347 72.771 227.74 81.833 227.74 81.833L219.083 76.981C219.083 76.981 220.705 73.256 222.683 69.465C225.854 63.339 231.736 63.135 233.127 68.271Z" fill="#B0BEC5"/>
<path opacity="0.2" d="M233.127 68.271C234.347 72.771 227.74 81.833 227.74 81.833L219.083 76.981C219.083 76.981 220.705 73.256 222.683 69.465C225.854 63.339 231.736 63.135 233.127 68.271Z" fill="black"/>
<path opacity="0.2" d="M222.518 78.919L225.927 80.831L226.527 70.367C224.542 71.887 223.144 76.479 222.518 78.919Z" fill="black"/>
<path d="M227.43 64.882C227.43 64.882 220.692 79.875 224.621 107.791H251.172C251.594 103.716 250.196 83.831 255.253 64.631C252.34 64.0616 249.393 63.6848 246.431 63.503C242.674 63.2853 238.907 63.2853 235.15 63.503C232.545 63.7675 229.964 64.2281 227.429 64.881L227.43 64.882Z" fill="#B0BEC5"/>
<path opacity="0.2" d="M227.43 64.882C227.43 64.882 220.692 79.875 224.621 107.791H251.172C251.594 103.716 250.196 83.831 255.253 64.631C252.34 64.0616 249.393 63.6848 246.431 63.503C242.674 63.2853 238.907 63.2853 235.15 63.503C232.545 63.7675 229.964 64.2281 227.429 64.881L227.43 64.882Z" fill="black"/>
<path d="M221.271 239.13C221.231 239.842 231.299 240.416 243.754 240.416C256.209 240.416 266.354 239.842 266.389 239.13C266.424 238.418 256.367 237.851 243.906 237.851C231.445 237.851 221.317 238.425 221.271 239.13Z" fill="#E8ECF1"/>
<path d="M238.995 220.42L234.285 222.243L238.341 232.722L243.051 230.899L238.995 220.42Z" fill="#E58A7B"/>
<path d="M259.994 234.059H255.03L253.21 222.567H258.175L259.994 234.059Z" fill="#E58A7B"/>
<path d="M254.687 233.486H260.265C260.361 233.487 260.454 233.522 260.528 233.585C260.601 233.647 260.649 233.734 260.665 233.829L261.384 238.24C261.399 238.351 261.39 238.463 261.358 238.57C261.326 238.677 261.271 238.776 261.197 238.86C261.124 238.944 261.032 239.011 260.93 239.056C260.828 239.102 260.718 239.125 260.606 239.124C258.661 239.091 257.725 238.972 255.272 238.972C253.762 238.972 250.657 239.13 248.56 239.13C246.463 239.13 246.325 237.073 247.189 236.882C251.066 236.045 252.569 234.904 253.861 233.796C254.089 233.595 254.383 233.485 254.687 233.486Z" fill="#263238"/>
<path d="M238.203 231.785L243.478 230.242C243.572 230.216 243.672 230.222 243.762 230.26C243.852 230.299 243.926 230.367 243.972 230.453L245.95 234.409C245.996 234.509 246.019 234.619 246.019 234.729C246.018 234.839 245.993 234.948 245.946 235.048C245.899 235.148 245.831 235.236 245.746 235.307C245.661 235.377 245.562 235.429 245.455 235.457C243.536 235.984 242.255 236.308 239.855 237.006C238.2 237.487 236.512 238.272 234.877 238.793C233.171 239.107 231.435 239.233 229.701 239.169C227.664 239.169 227.209 237.02 228.086 236.921C230.295 236.677 230.591 236.789 231.811 236.176C233.807 235.304 235.615 234.054 237.138 232.497C237.424 232.17 237.792 231.925 238.203 231.785Z" fill="#263238"/>
<path d="M199.85 90.338L194.39 88.05L192.142 94.103C194.38 94.4439 196.656 94.4439 198.894 94.103L199.85 90.338Z" fill="#E58A7B"/>
<path d="M190.329 87.892L190.184 91.914L192.142 94.09L194.39 88.037L190.329 87.892Z" fill="#E58A7B"/>
<path d="M239.641 221.309L234.917 223.133L237.009 228.552L241.733 226.728L239.641 221.309Z" fill="#CF6F64"/>
<path d="M258.175 222.567H253.21L254.153 228.494H259.118L258.175 222.567Z" fill="#CF6F64"/>
<path opacity="0.2" d="M223.777 100.242C223.877 101.435 223.988 102.655 224.133 103.908L243.873 97.499C246.957 96.5863 249.638 94.649 251.473 92.007C251.552 90.247 251.651 88.394 251.803 86.462C251.869 85.526 251.948 84.562 252.034 83.587C252.12 82.612 252.234 81.53 252.364 80.487L223.777 100.242Z" fill="black"/>
<path d="M230.225 78.615L229.566 78.536C229.955 75.236 232.414 72.642 235.005 72.707V73.366C232.737 73.321 230.575 75.661 230.225 78.615Z" fill="white"/>
<path d="M233.739 84.701H233.627V84.042C235.895 84.128 238.027 81.761 238.374 78.814L239.033 78.893C238.684 82.116 236.304 84.701 233.739 84.701Z" fill="white"/>
<path d="M246.062 50.798C245.132 54.431 244.038 61.084 246.431 63.503C246.431 63.503 244.756 67.189 238.011 67.189C231.846 67.189 235.15 63.503 235.15 63.503C239.25 62.54 239.324 59.547 238.783 56.712L246.062 50.798Z" fill="#E58A7B"/>
<path d="M243.1 53.211L238.795 56.711C238.929 57.3625 239.006 58.0243 239.026 58.689C240.285 59.942 242.811 56.77 243.068 55.148C243.198 54.5099 243.209 53.8531 243.1 53.211Z" fill="#CF6F64"/>
<path d="M231.388 50.752C231.687 51.271 232.091 51.7226 232.572 52.0788C233.054 52.435 233.604 52.688 234.188 52.822C235.77 53.171 236.562 51.714 236.126 50.251C235.737 48.932 234.438 47.159 232.826 47.462C232.481 47.5325 232.158 47.6848 231.884 47.906C231.611 48.1272 231.394 48.4109 231.252 48.7332C231.111 49.0555 231.049 49.4071 231.071 49.7584C231.094 50.1097 231.2 50.4504 231.382 50.752H231.388Z" fill="#CF6F64"/>
<path d="M234.003 39.13C231.537 40.257 230.667 50.055 233.766 51.506C236.865 52.957 238.671 36.985 234.003 39.13Z" fill="#263238"/>
<path d="M246.814 45.332C246.221 50.251 246.155 53.145 243.514 55.664C242.697 56.4998 241.664 57.0935 240.531 57.3796C239.397 57.6656 238.207 57.6329 237.091 57.2849C235.975 56.937 234.977 56.2874 234.207 55.4079C233.437 54.5284 232.925 53.4532 232.727 52.301C231.927 47.883 233.027 40.585 237.962 38.626C238.998 38.1689 240.138 37.9973 241.263 38.1289C242.387 38.2606 243.457 38.6907 244.359 39.3747C245.262 40.0587 245.965 40.9717 246.396 42.019C246.827 43.0663 246.97 44.2098 246.81 45.331L246.814 45.332Z" fill="#E58A7B"/>
<path d="M238.711 41.673C242.364 40.743 245.047 40.11 244.085 43.15C242.812 47.211 241.285 51.141 243.333 51.319C244.586 51.431 250.124 49.084 249.419 46.704C248.806 44.634 251.397 44.067 251.859 43.018C253.567 39.218 248.681 39.718 249.551 37.418C250.421 35.118 245.595 31.392 242.958 33.244C238.666 36.237 231.301 36.191 235.171 31.266C237.947 27.752 232.995 28.466 232.995 28.466C232.995 28.466 235.988 30.24 230.951 32.982C225.623 35.911 230.509 43.776 238.711 41.673Z" fill="#263238"/>
<path d="M248.753 50.752C248.032 51.7952 246.949 52.533 245.714 52.822C244.085 53.171 243.459 51.714 244.072 50.251C244.619 48.932 246.123 47.159 247.679 47.462C249.235 47.765 249.591 49.46 248.753 50.752Z" fill="#E58A7B"/>
<path d="M224.62 107.791C224.62 107.791 220.163 147.681 219.813 162.819C219.457 178.564 234.918 227.691 234.918 227.691L242.83 224.391C242.83 224.391 233.599 179.504 234.918 164.042C236.318 147.183 242.092 107.814 242.092 107.814L224.62 107.791Z" fill="#B0BEC5"/>
<path opacity="0.2" d="M235.698 118.743C232.144 126.114 234.538 140.692 236.463 149.329C237.195 143.229 238.063 136.61 238.889 130.485C238.81 121.07 238.078 113.798 235.698 118.743Z" fill="black"/>
<path d="M242.482 221.783C242.522 221.783 243.418 224.302 243.418 224.302L234.293 228.139L232.856 225.462L242.482 221.783Z" fill="#B0BEC5"/>
<path d="M234.043 107.791C234.043 107.791 237.452 145.729 239.707 159.938C242.186 175.505 251.907 227.348 251.907 227.348H260.999C260.999 227.348 255.553 176.764 254.524 161.348C253.403 144.627 251.175 107.791 251.175 107.791H234.043Z" fill="#B0BEC5"/>
<path d="M261.13 224.981C261.17 224.981 261.43 227.519 261.43 227.519H251.43L250.73 224.605L261.13 224.981Z" fill="#B0BEC5"/>
<path opacity="0.2" d="M257.653 221.974C257.632 221.974 257.612 221.967 257.596 221.954C257.581 221.94 257.57 221.922 257.567 221.901C257.514 221.439 252.602 175.748 251.679 161.901C250.679 146.881 248.659 113.565 248.639 113.229C248.638 113.218 248.639 113.207 248.643 113.197C248.646 113.186 248.652 113.177 248.66 113.169C248.667 113.16 248.676 113.154 248.686 113.15C248.696 113.145 248.707 113.143 248.718 113.143C248.74 113.143 248.761 113.151 248.776 113.166C248.792 113.18 248.802 113.2 248.804 113.222C248.804 113.558 250.841 146.848 251.844 161.894C252.767 175.74 257.679 221.394 257.725 221.894C257.727 221.905 257.726 221.916 257.724 221.927C257.721 221.938 257.716 221.948 257.709 221.956C257.702 221.965 257.694 221.972 257.684 221.977C257.674 221.982 257.663 221.985 257.652 221.986L257.653 221.974Z" fill="black"/>
<path d="M239.272 46.703C239.272 47.103 239.021 47.428 238.758 47.428C238.495 47.428 238.303 47.105 238.329 46.703C238.355 46.301 238.58 45.978 238.843 45.978C239.106 45.978 239.298 46.308 239.272 46.703Z" fill="#263238"/>
<path d="M234.748 46.703C234.748 47.103 234.491 47.428 234.234 47.428C233.977 47.428 233.779 47.105 233.799 46.703C233.819 46.301 234.056 45.978 234.32 45.978C234.584 45.978 234.779 46.308 234.748 46.703Z" fill="#263238"/>
<path d="M236.173 46.908C235.623 48.1362 234.913 49.2867 234.063 50.33C234.333 50.5253 234.642 50.6585 234.969 50.7201C235.296 50.7816 235.633 50.77 235.955 50.686L236.173 46.908Z" fill="#DF5753"/>
<path d="M236.291 52.366C236.276 52.366 236.261 52.3629 236.246 52.3569C236.232 52.3508 236.22 52.3419 236.209 52.3308C236.199 52.3196 236.191 52.3064 236.185 52.292C236.18 52.2776 236.178 52.2623 236.179 52.247C236.181 52.2149 236.194 52.1846 236.218 52.1625C236.241 52.1403 236.272 52.128 236.304 52.128C236.808 52.1314 237.307 52.0218 237.763 51.8072C238.22 51.5926 238.622 51.2785 238.941 50.888C238.964 50.868 238.993 50.8569 239.024 50.8569C239.054 50.8569 239.083 50.868 239.106 50.888C239.127 50.9102 239.139 50.9397 239.139 50.9705C239.139 51.0013 239.127 51.0308 239.106 51.053C238.765 51.4681 238.335 51.8015 237.847 52.0287C237.36 52.2559 236.828 52.3712 236.291 52.366Z" fill="#263238"/>
<path d="M240.076 45.49C240.045 45.5055 240.011 45.5136 239.976 45.5136C239.941 45.5136 239.907 45.5055 239.876 45.49C239.629 45.3306 239.349 45.2314 239.057 45.2005C238.765 45.1695 238.47 45.2078 238.195 45.312C238.168 45.3249 238.14 45.3324 238.11 45.3341C238.081 45.3358 238.051 45.3317 238.023 45.3219C237.995 45.3122 237.97 45.297 237.948 45.2773C237.926 45.2575 237.908 45.2337 237.895 45.207C237.871 45.1484 237.87 45.0827 237.893 45.0237C237.917 44.9647 237.962 44.9171 238.02 44.891C238.365 44.7505 238.739 44.6953 239.109 44.7301C239.48 44.7649 239.837 44.8887 240.15 45.091C240.175 45.1082 240.197 45.1303 240.213 45.1559C240.23 45.1815 240.241 45.2102 240.247 45.2402C240.252 45.2702 240.252 45.3011 240.245 45.3309C240.239 45.3607 240.226 45.389 240.209 45.414C240.173 45.4519 240.127 45.4784 240.076 45.49Z" fill="#263238"/>
<path d="M233.001 44.172C232.966 44.1634 232.934 44.145 232.909 44.119C232.887 44.0975 232.87 44.0718 232.858 44.0435C232.846 44.0152 232.84 43.9847 232.84 43.954C232.84 43.9233 232.846 43.8928 232.858 43.8645C232.87 43.8362 232.887 43.8105 232.909 43.789C233.162 43.5055 233.476 43.2841 233.829 43.1422C234.181 43.0003 234.561 42.9417 234.94 42.971C234.97 42.9756 234.999 42.9864 235.025 43.0027C235.051 43.019 235.074 43.0405 235.091 43.0658C235.108 43.0912 235.12 43.1198 235.126 43.1499C235.132 43.18 235.132 43.211 235.125 43.241C235.111 43.3025 235.076 43.3568 235.025 43.3937C234.974 43.4306 234.911 43.4474 234.848 43.441C234.549 43.4224 234.249 43.4721 233.972 43.5863C233.695 43.7004 233.447 43.8761 233.248 44.1C233.218 44.1338 233.178 44.1585 233.135 44.1712C233.091 44.1839 233.045 44.1842 233.001 44.172Z" fill="#263238"/>
<path d="M257.805 71.118L250.948 69.292C250.948 69.292 244.223 85.848 241.843 86.923C236.707 89.6349 231.734 92.6444 226.949 95.936C226.758 97.1525 226.896 98.3979 227.349 99.543C233.283 98.462 244.643 94.09 247.017 91.868C252.425 86.797 257.805 71.118 257.805 71.118Z" fill="#E58A7B"/>
<path d="M253.019 234.356C252.684 234.383 252.351 234.292 252.076 234.099C251.992 234.022 251.929 233.924 251.894 233.815C251.859 233.707 251.853 233.591 251.876 233.479C251.88 233.409 251.903 233.341 251.942 233.283C251.982 233.225 252.036 233.179 252.1 233.149C252.654 232.865 254.2 233.849 254.381 233.96C254.401 233.972 254.416 233.99 254.424 234.012C254.432 234.033 254.433 234.057 254.427 234.079C254.421 234.102 254.41 234.124 254.394 234.141C254.378 234.159 254.358 234.172 254.335 234.179C253.905 234.285 253.465 234.344 253.023 234.357L253.019 234.356ZM252.36 233.327C252.31 233.316 252.258 233.316 252.208 233.327C252.183 233.34 252.162 233.36 252.148 233.384C252.134 233.409 252.127 233.437 252.129 233.465C252.111 233.542 252.114 233.622 252.137 233.697C252.161 233.773 252.203 233.84 252.261 233.894C252.812 234.149 253.44 234.182 254.015 233.986C253.508 233.653 252.938 233.428 252.34 233.327H252.36Z" fill="#B0BEC5"/>
<path d="M254.297 234.178C254.28 234.184 254.261 234.184 254.244 234.178C253.75 233.901 252.82 232.813 252.958 232.259C252.978 232.171 253.028 232.092 253.098 232.036C253.169 231.98 253.257 231.949 253.347 231.949C253.435 231.937 253.525 231.945 253.611 231.971C253.696 231.997 253.774 232.042 253.841 232.101C254.388 232.569 254.421 234.006 254.421 234.079C254.424 234.101 254.42 234.122 254.409 234.141C254.398 234.16 254.382 234.175 254.362 234.184C254.34 234.189 254.318 234.186 254.297 234.178ZM253.413 232.167H253.367C253.215 232.167 253.196 232.253 253.189 232.286C253.11 232.609 253.697 233.433 254.189 233.822C254.187 233.265 254.014 232.722 253.694 232.266C253.618 232.199 253.519 232.163 253.417 232.166L253.413 232.167Z" fill="#B0BEC5"/>
<path d="M235.513 233.529C235.11 233.67 234.67 233.67 234.267 233.529C234.176 233.479 234.098 233.408 234.042 233.32C233.985 233.233 233.952 233.133 233.944 233.029C233.936 232.964 233.944 232.898 233.968 232.837C233.992 232.776 234.031 232.722 234.082 232.68C234.609 232.205 236.765 232.68 237.009 232.772C237.032 232.778 237.053 232.792 237.067 232.811C237.081 232.83 237.089 232.853 237.088 232.877C237.089 232.902 237.083 232.926 237.07 232.948C237.057 232.969 237.038 232.986 237.015 232.996C236.531 233.215 236.029 233.394 235.515 233.53L235.513 233.529ZM234.438 232.744C234.364 232.76 234.295 232.795 234.238 232.844C234.217 232.86 234.201 232.881 234.192 232.905C234.182 232.93 234.18 232.956 234.185 232.982C234.189 233.051 234.211 233.118 234.248 233.177C234.285 233.236 234.336 233.284 234.396 233.318C235.156 233.448 235.939 233.307 236.605 232.918C235.899 232.74 235.168 232.682 234.442 232.747L234.438 232.744Z" fill="#B0BEC5"/>
<path d="M236.996 232.998H236.943C236.284 232.879 234.965 232.121 234.925 231.554C234.925 231.422 234.984 231.238 235.301 231.132C235.408 231.094 235.521 231.078 235.635 231.085C235.748 231.092 235.858 231.121 235.96 231.172C236.672 231.522 237.048 232.787 237.068 232.847C237.07 232.876 237.064 232.906 237.051 232.932C237.038 232.959 237.019 232.982 236.995 232.999L236.996 232.998ZM235.433 231.33H235.367C235.167 231.403 235.167 231.488 235.167 231.515C235.167 231.858 236.123 232.484 236.789 232.695C236.636 232.165 236.311 231.701 235.866 231.376C235.733 231.309 235.581 231.292 235.437 231.33H235.433Z" fill="#B0BEC5"/>
<path d="M227.509 95.547L220.632 98.712L219.832 100.69L222.37 102.398C222.37 102.398 227.117 101.884 228.47 98.831L227.509 95.547Z" fill="#E58A7B"/>
<path d="M227.799 99.654C227.645 98.3326 227.209 97.0598 226.52 95.922L227.608 95.104C228.427 96.415 228.949 97.8891 229.138 99.423L227.799 99.654Z" fill="#263238"/>
<path d="M228.973 96.484C229.118 96.7127 229.19 96.9806 229.178 97.2514C229.166 97.5222 229.07 97.7826 228.905 97.9973C228.739 98.212 228.512 98.3705 228.253 98.4512C227.994 98.532 227.717 98.531 227.459 98.4486C227.201 98.3661 226.974 98.2061 226.81 97.9903C226.646 97.7745 226.553 97.5134 226.542 97.2425C226.532 96.9717 226.605 96.7042 226.752 96.4765C226.899 96.2488 227.113 96.072 227.364 95.97C227.646 95.8263 227.973 95.7997 228.274 95.896C228.576 95.9922 228.827 96.2036 228.973 96.484Z" fill="#263238"/>
<path d="M215.984 101.27L216.9 102.193L223.071 99.556L220.631 98.712L215.984 101.27Z" fill="#E58A7B"/>
<path opacity="0.2" d="M242.482 221.783C242.522 221.783 243.418 224.302 243.418 224.302L234.293 228.139L232.856 225.462L242.482 221.783Z" fill="black"/>
<path opacity="0.2" d="M261.13 224.981C261.17 224.981 261.43 227.519 261.43 227.519H251.43L250.73 224.605L261.13 224.981Z" fill="black"/>
<path d="M259.592 69.219C261.405 75.067 254.317 83.065 254.317 83.065L244.526 79.065C245.687 75.6848 247.025 72.3682 248.535 69.129C251.541 62.653 257.759 63.318 259.592 69.219Z" fill="#B0BEC5"/>
<path opacity="0.2" d="M259.592 69.219C261.405 75.067 254.317 83.065 254.317 83.065L244.526 79.065C245.687 75.6848 247.025 72.3682 248.535 69.129C251.541 62.653 257.759 63.318 259.592 69.219Z" fill="black"/>
<path d="M162.301 10.625H158.088V11.304H162.301V10.625Z" fill="#B0BEC5"/>
<path d="M216.839 37.5025L216.329 48.818L217.007 48.8486L217.517 37.533L216.839 37.5025Z" fill="#B0BEC5"/>
<path d="M215.529 13.671H137.729L130.488 175.681H208.288L215.529 13.671Z" fill="#B0BEC5"/>
<path opacity="0.56" d="M213.208 15.9H135.408L128.167 177.911H205.967L213.208 15.9Z" fill="#FAFAFA"/>
<path opacity="0.07" d="M210.887 18.122H133.087L125.84 180.133H203.64L210.887 18.122Z" fill="#B0BEC5"/>
<path d="M202.033 88.782H135.625L135.071 101.182H201.479L202.033 88.782Z" fill="white"/>
<path d="M172.145 79.736H136.023L135.779 85.281H171.897L172.145 79.736Z" fill="#B0BEC5"/>
<path d="M200.536 122.237H134.128L133.574 134.637H199.982L200.536 122.237Z" fill="white"/>
<path opacity="0.47" d="M188.357 151.373H143.701L143.035 166.228H187.692L188.357 151.373Z" fill="#B0BEC5"/>
<path d="M185.371 168.535H140.715C140.696 168.54 140.675 168.54 140.656 168.535C140.65 168.516 140.65 168.495 140.656 168.476L141.315 153.615C141.315 153.605 141.317 153.595 141.321 153.586C141.325 153.576 141.331 153.568 141.338 153.561C141.346 153.554 141.355 153.549 141.364 153.546C141.374 153.542 141.384 153.541 141.394 153.542H186.051C186.059 153.538 186.068 153.536 186.077 153.536C186.087 153.536 186.096 153.538 186.104 153.542C186.109 153.55 186.111 153.559 186.111 153.568C186.111 153.578 186.109 153.587 186.104 153.595L185.458 168.489C185.45 168.505 185.437 168.517 185.422 168.526C185.406 168.534 185.388 168.537 185.371 168.535ZM140.794 168.377H185.294L185.953 153.677H141.453L140.794 168.377Z" fill="white"/>
<path d="M164.345 113.191H134.53L134.286 118.743H164.096L164.345 113.191Z" fill="#B0BEC5"/>
<path d="M187.507 48.741C187.337 52.3484 186.054 55.8147 183.835 58.664C182.193 60.8155 180.079 62.5622 177.657 63.7702C175.235 64.9783 172.569 65.6155 169.862 65.633C167.674 65.6497 165.506 65.2183 163.491 64.3653C161.476 63.5124 159.657 62.2559 158.147 60.6734C156.636 59.0909 155.465 57.2158 154.706 55.1637C153.947 53.1115 153.617 50.9257 153.735 48.741C153.966 44.2073 155.921 39.9334 159.2 36.7934C162.478 33.6534 166.832 31.8847 171.372 31.849C173.561 31.8286 175.732 32.2574 177.749 33.1089C179.766 33.9604 181.587 35.2166 183.1 36.7997C184.613 38.3828 185.785 40.2592 186.544 42.3131C187.302 44.367 187.632 46.5547 187.512 48.741H187.507Z" fill="white"/>
<path d="M189.097 35.38C189.054 36.3391 188.713 37.2609 188.121 38.017C187.683 38.5887 187.121 39.0529 186.476 39.374C185.831 39.6952 185.122 39.8648 184.402 39.87C183.704 39.8741 183.016 39.7074 182.398 39.3844C181.78 39.0614 181.25 38.5919 180.855 38.017C180.332 37.2401 180.073 36.3155 180.117 35.38C180.181 34.1764 180.701 33.0424 181.573 32.2094C182.444 31.3764 183.6 30.907 184.805 30.897C185.386 30.8917 185.963 31.0055 186.499 31.2314C187.034 31.4573 187.518 31.7905 187.92 32.2105C188.322 32.6305 188.634 33.1284 188.837 33.6735C189.039 34.2186 189.128 34.7994 189.097 35.38Z" fill="#B0BEC5"/>
<path d="M142.778 94.98C142.747 95.5116 142.515 96.0116 142.13 96.3788C141.744 96.746 141.233 96.9531 140.701 96.958C140.444 96.9612 140.189 96.9117 139.952 96.8124C139.715 96.7131 139.5 96.5662 139.322 96.3808C139.144 96.1954 139.006 95.9754 138.916 95.7345C138.827 95.4935 138.787 95.2367 138.801 94.98C138.83 94.4476 139.061 93.9462 139.447 93.5785C139.833 93.2108 140.345 93.0045 140.878 93.002C141.135 92.9998 141.389 93.05 141.626 93.1497C141.863 93.2493 142.076 93.3962 142.254 93.5814C142.432 93.7666 142.57 93.9862 142.66 94.2267C142.751 94.4672 142.79 94.7235 142.778 94.98Z" fill="#263238"/>
<path d="M151.668 94.98C151.637 95.5116 151.405 96.0116 151.02 96.3788C150.634 96.746 150.123 96.9531 149.591 96.958C149.335 96.9601 149.08 96.9098 148.844 96.81C148.608 96.7102 148.395 96.5632 148.218 96.3779C148.04 96.1926 147.903 95.973 147.814 95.7326C147.724 95.4922 147.685 95.2361 147.699 94.98C147.727 94.4488 147.957 93.9484 148.342 93.5809C148.727 93.2133 149.237 93.0063 149.769 93.002C150.026 92.9988 150.281 93.0483 150.518 93.1476C150.755 93.2469 150.97 93.3938 151.148 93.5792C151.326 93.7646 151.464 93.9846 151.554 94.2255C151.643 94.4665 151.683 94.7233 151.669 94.98H151.668Z" fill="#263238"/>
<path d="M160.561 94.98C160.53 95.5116 160.298 96.0116 159.913 96.3788C159.527 96.746 159.016 96.9531 158.484 96.958C158.227 96.9602 157.973 96.91 157.736 96.8103C157.499 96.7107 157.285 96.5638 157.108 96.3786C156.93 96.1934 156.791 95.9738 156.701 95.7333C156.611 95.4928 156.571 95.2365 156.584 94.98C156.615 94.4484 156.847 93.9484 157.232 93.5812C157.618 93.214 158.129 93.0069 158.661 93.002C158.918 92.9988 159.173 93.0483 159.41 93.1476C159.647 93.2469 159.862 93.3938 160.04 93.5792C160.218 93.7646 160.356 93.9846 160.446 94.2255C160.535 94.4665 160.575 94.7233 160.561 94.98Z" fill="#263238"/>
<path d="M141.282 128.434C141.251 128.966 141.019 129.466 140.634 129.833C140.248 130.2 139.737 130.407 139.205 130.412C138.948 130.414 138.694 130.364 138.457 130.264C138.22 130.165 138.006 130.018 137.829 129.833C137.651 129.647 137.512 129.428 137.422 129.187C137.332 128.947 137.292 128.69 137.305 128.434C137.336 127.902 137.568 127.402 137.953 127.035C138.339 126.668 138.85 126.461 139.382 126.456C139.639 126.454 139.893 126.504 140.13 126.604C140.367 126.703 140.58 126.85 140.758 127.035C140.936 127.221 141.074 127.44 141.165 127.681C141.255 127.921 141.295 128.178 141.282 128.434Z" fill="#263238"/>
<path d="M150.17 128.434C150.139 128.964 149.908 129.463 149.524 129.83C149.14 130.198 148.631 130.405 148.1 130.412C147.843 130.415 147.588 130.366 147.351 130.266C147.114 130.167 146.899 130.02 146.721 129.835C146.543 129.649 146.405 129.429 146.315 129.188C146.226 128.948 146.186 128.691 146.2 128.434C146.231 127.902 146.463 127.402 146.848 127.035C147.234 126.668 147.744 126.461 148.277 126.456C148.533 126.454 148.787 126.504 149.024 126.604C149.26 126.704 149.473 126.851 149.65 127.036C149.828 127.221 149.965 127.441 150.054 127.681C150.143 127.922 150.183 128.178 150.17 128.434Z" fill="#263238"/>
<path d="M159.084 128.434C159.053 128.966 158.821 129.466 158.436 129.833C158.05 130.2 157.539 130.407 157.007 130.412C156.75 130.413 156.496 130.363 156.26 130.263C156.024 130.163 155.81 130.016 155.633 129.831C155.455 129.646 155.317 129.426 155.226 129.186C155.136 128.946 155.095 128.69 155.107 128.434C155.138 127.902 155.37 127.402 155.755 127.035C156.141 126.668 156.652 126.461 157.184 126.456C157.441 126.453 157.696 126.502 157.933 126.602C158.17 126.701 158.385 126.848 158.563 127.033C158.741 127.219 158.879 127.439 158.969 127.68C159.058 127.92 159.098 128.177 159.084 128.434Z" fill="#263238"/>
<path d="M167.953 128.434C167.922 128.966 167.69 129.466 167.305 129.833C166.919 130.2 166.408 130.407 165.876 130.412C165.619 130.413 165.365 130.363 165.129 130.263C164.893 130.163 164.679 130.016 164.502 129.831C164.324 129.646 164.186 129.426 164.095 129.186C164.005 128.946 163.964 128.69 163.976 128.434C164.007 127.902 164.239 127.402 164.624 127.035C165.01 126.668 165.52 126.461 166.053 126.456C166.31 126.454 166.564 126.504 166.801 126.604C167.038 126.703 167.251 126.85 167.429 127.035C167.607 127.221 167.745 127.44 167.835 127.681C167.926 127.921 167.965 128.178 167.953 128.434Z" fill="#263238"/>
<path d="M176.885 128.434C176.854 128.966 176.622 129.466 176.237 129.833C175.851 130.2 175.34 130.407 174.808 130.412C174.551 130.415 174.296 130.366 174.059 130.266C173.822 130.167 173.607 130.02 173.429 129.835C173.251 129.649 173.113 129.429 173.023 129.188C172.934 128.948 172.894 128.691 172.908 128.434C172.939 127.902 173.171 127.402 173.556 127.035C173.942 126.668 174.452 126.461 174.985 126.456C175.242 126.454 175.496 126.504 175.733 126.604C175.97 126.703 176.183 126.85 176.361 127.035C176.539 127.221 176.677 127.44 176.767 127.681C176.858 127.921 176.897 128.178 176.885 128.434Z" fill="#263238"/>
<path d="M175.535 47.862C178.295 45.1633 178.441 40.8376 175.862 38.2003C173.283 35.563 168.956 35.6128 166.196 38.3115C163.436 41.0103 163.29 45.3359 165.869 47.9732C168.448 50.6105 172.776 50.5607 175.535 47.862Z" fill="#B0BEC5"/>
<path d="M183.835 58.659C182.192 60.8111 180.078 62.5583 177.655 63.7663C175.232 64.9744 172.564 65.6112 169.857 65.628C167.232 65.6505 164.641 65.0265 162.314 63.8111C159.986 62.5958 157.994 60.8264 156.512 58.659C160.284 55.1666 165.265 53.2754 170.404 53.384C176.022 53.389 180.912 55.472 183.835 58.659Z" fill="#B0BEC5"/>
<path opacity="0.1" d="M175.535 47.862C178.295 45.1633 178.441 40.8376 175.862 38.2003C173.283 35.563 168.956 35.6128 166.196 38.3115C163.436 41.0103 163.29 45.3359 165.869 47.9732C168.448 50.6105 172.776 50.5607 175.535 47.862Z" fill="white"/>
<path opacity="0.1" d="M183.835 58.659C182.192 60.8111 180.078 62.5583 177.655 63.7663C175.232 64.9744 172.564 65.6112 169.857 65.628C167.232 65.6505 164.641 65.0265 162.314 63.8111C159.986 62.5958 157.994 60.8264 156.512 58.659C160.284 55.1666 165.265 53.2754 170.404 53.384C176.022 53.389 180.912 55.472 183.835 58.659Z" fill="white"/>
<path d="M86.828 104.164C86.202 105.535 85.542 107.045 84.969 108.509C84.396 109.973 83.809 111.483 83.301 112.986C82.2645 115.949 81.4751 118.993 80.941 122.086L80.796 123.055C80.782 123.221 80.7976 123.389 80.842 123.55C80.9975 124.097 81.2424 124.614 81.567 125.08C82.4133 126.288 83.3954 127.395 84.494 128.38C85.6523 129.457 86.8674 130.472 88.134 131.42C89.4 132.396 90.734 133.345 92.044 134.242L90.811 136.556C87.678 135.191 84.7042 133.487 81.943 131.473C80.4698 130.399 79.1404 129.14 77.987 127.728C77.3033 126.888 76.7702 125.935 76.411 124.913C76.2024 124.274 76.0957 123.607 76.095 122.935V122.111L76.161 121.452C76.539 118.017 77.2613 114.629 78.317 111.338C78.831 109.716 79.379 108.101 80.005 106.525C80.631 104.949 81.278 103.406 82.075 101.804L86.828 104.164Z" fill="#E58A7B"/>
<path d="M91.113 133.827L95.774 131.467L94.567 136.583C94.567 136.583 91.367 137.483 89.886 135.924L91.113 133.827Z" fill="#E58A7B"/>
<path d="M100.04 132.304L98.8 136.537L94.567 136.583L95.774 131.467L100.04 132.304Z" fill="#E58A7B"/>
<path d="M106.62 79.478C106.869 80.3916 107.216 81.2757 107.655 82.115C107.527 82.2602 107.362 82.3681 107.177 82.4273C106.993 82.4864 106.796 82.4946 106.607 82.451L106.62 79.478Z" fill="#DF5753"/>
<path d="M106.482 79.518C106.755 79.518 106.976 79.1786 106.976 78.76C106.976 78.3414 106.755 78.002 106.482 78.002C106.209 78.002 105.988 78.3414 105.988 78.76C105.988 79.1786 106.209 79.518 106.482 79.518Z" fill="#263238"/>
<path d="M106.337 78.028L107.337 77.744C107.337 77.744 106.851 78.522 106.337 78.028Z" fill="#263238"/>
<path d="M93.743 84.318C94.343 87.384 94.943 93.008 92.794 95.059C92.794 95.059 93.638 98.171 99.341 98.171C105.611 98.171 102.334 95.059 102.334 95.059C98.912 94.241 98.998 91.703 99.598 89.316L93.743 84.318Z" fill="#E58A7B"/>
<path d="M92.075 77.329C92.391 82.452 92.418 84.629 95.002 87.259C98.902 91.215 105.123 89.712 106.342 84.622C107.442 80.007 106.742 72.411 101.727 70.374C100.626 69.9196 99.4265 69.7538 98.2431 69.8924C97.0598 70.0309 95.9314 70.4692 94.9647 71.1658C93.9981 71.8623 93.2253 72.794 92.7194 73.8728C92.2136 74.9515 91.9914 76.1414 92.074 77.33L92.075 77.329Z" fill="#E58A7B"/>
<path d="M92.584 71.566C90.013 72.502 86.584 71.803 87.929 79.735C89.353 88.135 87.164 90.898 87.164 90.898C93.6817 92.1043 100.369 92.0619 106.871 90.773C106.871 90.773 103.831 85.459 104.682 81.542C105.77 76.597 104.913 74.771 104.913 74.771C104.913 74.771 96.197 70.248 92.584 71.566Z" fill="#263238"/>
<path d="M103.462 80C103.463 80.9735 103.741 81.9267 104.262 82.749C104.962 83.817 105.785 83.408 105.989 82.274C106.174 81.274 106.035 79.518 105.145 78.832C104.255 78.146 103.475 78.82 103.462 80Z" fill="#E58A7B"/>
<path d="M90.348 72.43C89.61 70.353 93.13 67.155 100.581 68.474C108.032 69.793 108.355 75.997 108.355 75.997L106.855 74.204L106.921 76.09L99.266 77.56L90.348 72.43Z" fill="#263238"/>
<path d="M90.9779 95.408C90.9339 95.1069 91.0092 94.8005 91.1877 94.5541C91.3663 94.3077 91.6341 94.1408 91.934 94.089C94.255 93.707 99.5339 92.929 102.18 93.298C104.158 93.575 104.672 94.722 104.758 95.665C104.771 95.8301 104.749 95.9963 104.693 96.1522C104.637 96.3082 104.549 96.4503 104.433 96.569C104.317 96.6877 104.178 96.7803 104.023 96.8405C103.869 96.9007 103.703 96.9271 103.538 96.918L92.0789 96.404C91.8088 96.3903 91.5516 96.2836 91.351 96.1021C91.1504 95.9207 91.0186 95.6755 90.9779 95.408Z" fill="#B0BEC5"/>
<path opacity="0.6" d="M90.9779 95.408C90.9339 95.1069 91.0092 94.8005 91.1877 94.5541C91.3663 94.3077 91.6341 94.1408 91.934 94.089C94.255 93.707 99.5339 92.929 102.18 93.298C104.158 93.575 104.672 94.722 104.758 95.665C104.771 95.8301 104.749 95.9963 104.693 96.1522C104.637 96.3082 104.549 96.4503 104.433 96.569C104.317 96.6877 104.178 96.7803 104.023 96.8405C103.869 96.9007 103.703 96.9271 103.538 96.918L92.0789 96.404C91.8088 96.3903 91.5516 96.2836 91.351 96.1021C91.1504 95.9207 91.0186 95.6755 90.9779 95.408Z" fill="black"/>
<path d="M97.608 210.593L101.861 213.547L108.975 203.901L104.722 200.954L97.608 210.593Z" fill="#E58A7B"/>
<path d="M87.691 210.402L92.181 212.96L98.481 202.76L93.991 200.202L87.691 210.402Z" fill="#E58A7B"/>
<path d="M108.969 203.901L105.303 208.872L101.05 205.925L104.716 200.954L108.969 203.901Z" fill="#CF6F64"/>
<path d="M93.981 200.202L98.481 202.767L95.237 208.022L90.737 205.457L93.981 200.202Z" fill="#CF6F64"/>
<path d="M101.194 127.61C101.194 127.61 117.794 148.531 114.677 168.541C112.165 184.701 97.594 206.584 97.594 206.584L90.744 203.184C95.5724 193.508 99.6929 183.496 103.073 173.224C104.115 170.035 104.42 166.651 103.963 163.327C103.506 160.003 102.3 156.827 100.436 154.037C92.023 141.754 78.546 149.066 87.612 127.611L101.194 127.61Z" fill="#B0BEC5"/>
<path opacity="0.6" d="M101.194 127.61C101.194 127.61 117.794 148.531 114.677 168.541C112.165 184.701 97.594 206.584 97.594 206.584L90.744 203.184C95.5724 193.508 99.6929 183.496 103.073 173.224C104.115 170.035 104.42 166.651 103.963 163.327C103.506 160.003 102.3 156.827 100.436 154.037C92.023 141.754 78.546 149.066 87.612 127.611L101.194 127.61Z" fill="black"/>
<path opacity="0.4" d="M109.334 141.047L106.921 138.647C106.921 138.838 111.596 167.697 112.908 175.807C113.682 173.438 114.275 171.013 114.682 168.554C116.227 158.737 113.003 148.707 109.334 141.047Z" fill="black"/>
<path d="M108.606 127.61C108.606 127.61 128.597 153.904 129.164 169.669C129.632 182.856 107.406 208.405 107.406 208.405L100.945 204.225C100.945 204.225 113.954 186.08 117.23 171.258C115.964 156.568 89.195 127.61 89.195 127.61H108.606Z" fill="#B0BEC5"/>
<path opacity="0.6" d="M108.606 127.61C108.606 127.61 128.597 153.904 129.164 169.669C129.632 182.856 107.406 208.405 107.406 208.405L100.945 204.225C100.945 204.225 113.954 186.08 117.23 171.258C115.964 156.568 89.195 127.61 89.195 127.61H108.606Z" fill="black"/>
<path d="M83.8739 96.232C81.7379 96.74 79.687 104.507 79.687 104.507L88.0409 110.085C88.0409 110.085 90.8229 103.94 89.8479 101.25C88.8389 98.447 86.5569 95.593 83.8739 96.232Z" fill="#B0BEC5"/>
<path opacity="0.2" d="M85.509 101.236L84.929 108.007L88.034 110.09C88.8913 108.16 89.526 106.138 89.9259 104.064L85.509 101.236Z" fill="black"/>
<path d="M111.078 96.384C111.078 96.384 113.544 97.248 108.605 127.603H87.599C87.955 119.032 87.962 113.757 83.874 96.232C86.8154 95.6257 89.7968 95.2333 92.795 95.058C95.9712 94.8302 99.1597 94.8302 102.336 95.058C106.436 95.435 111.078 96.384 111.078 96.384Z" fill="#B0BEC5"/>
<path d="M113.214 101.237C113.689 102.556 114.19 103.973 114.714 105.337C115.238 106.701 115.743 108.106 116.277 109.491L117.892 113.632L118.301 114.667L118.512 115.181L118.612 115.438V115.478C118.491 115.308 118.333 115.168 118.15 115.069C117.889 114.916 117.595 114.827 117.293 114.812C117.042 114.804 116.792 114.851 116.561 114.95C116.261 115.088 116.261 115.15 116.261 115.141C116.316 115.097 116.365 115.046 116.406 114.989C116.771 114.51 117.087 113.995 117.349 113.453C117.659 112.846 117.956 112.2 118.249 111.548C118.829 110.229 119.363 108.865 119.897 107.487C120.431 106.109 120.939 104.718 121.433 103.313L122.933 99.106L125.471 99.765C124.971 102.772 124.324 105.699 123.546 108.679C123.17 110.162 122.728 111.633 122.227 113.116C121.976 113.861 121.7 114.599 121.383 115.358C121.053 116.181 120.647 116.971 120.17 117.718C119.995 117.969 119.801 118.207 119.59 118.43C119.253 118.794 118.845 119.084 118.39 119.281C117.987 119.454 117.55 119.535 117.111 119.518C116.62 119.5 116.141 119.357 115.72 119.103C115.223 118.793 114.811 118.365 114.52 117.857C114.42 117.686 114.335 117.514 114.276 117.389L114.151 117.138L113.9 116.624L113.4 115.602C112.741 114.231 112.081 112.846 111.508 111.455C110.935 110.064 110.328 108.655 109.761 107.235C109.194 105.815 108.686 104.4 108.205 102.87L113.214 101.237Z" fill="#E58A7B"/>
<path d="M111.078 96.384C113.603 96.984 116.445 104.448 116.445 104.448L108.935 110.837C108.935 110.837 104.076 102.701 105.058 100.017C106.08 97.221 107.781 95.599 111.078 96.384Z" fill="#B0BEC5"/>
<path d="M124.139 96.746L126.776 94.546L128.609 97.401L127.257 99.781C127.257 99.781 125.108 101.759 123.209 100.75C122.908 100.073 122.836 99.316 123.004 98.5943C123.172 97.8725 123.57 97.2251 124.139 96.75V96.746Z" fill="#E58A7B"/>
<path d="M131.537 94.551L131.337 95.27L127.163 95.97L126.754 94.546L131.537 94.551Z" fill="#E58A7B"/>
<path d="M107.92 208.74L100.39 203.874L101.742 201.527L110.201 206.727L107.92 208.74Z" fill="#B0BEC5"/>
<path d="M95.13 212.618C94.4695 212.537 93.8348 212.312 93.271 211.959C93.2479 211.951 93.228 211.935 93.2139 211.915C93.1998 211.895 93.1922 211.872 93.1922 211.847C93.1922 211.822 93.1998 211.799 93.2139 211.779C93.228 211.758 93.2479 211.743 93.271 211.735C93.471 211.669 95.249 211.122 95.763 211.544C95.8204 211.592 95.8641 211.654 95.8896 211.724C95.9151 211.795 95.9214 211.87 95.908 211.944C95.8987 212.063 95.8593 212.177 95.7935 212.276C95.7277 212.375 95.6377 212.456 95.532 212.511C95.4087 212.579 95.2707 212.616 95.13 212.618ZM93.647 211.893C94.471 212.315 95.13 212.467 95.447 212.308C95.5158 212.27 95.5737 212.215 95.6152 212.148C95.6567 212.081 95.6804 212.005 95.684 211.926C95.684 211.821 95.684 211.774 95.625 211.748C95.348 211.524 94.359 211.695 93.634 211.893H93.647Z" fill="#263238"/>
<path d="M93.316 212.004C93.2813 212.003 93.2482 211.989 93.224 211.964C93.2141 211.946 93.2089 211.925 93.2089 211.905C93.2089 211.884 93.2141 211.863 93.224 211.845C93.224 211.786 93.653 210.355 94.324 210.032C94.4099 209.993 94.5031 209.973 94.5975 209.973C94.6918 209.973 94.7851 209.993 94.871 210.032C94.963 210.062 95.0425 210.121 95.0968 210.202C95.1512 210.282 95.1773 210.377 95.171 210.474C95.125 211.067 93.918 211.885 93.364 212.023L93.316 212.004ZM94.595 210.204C94.5307 210.206 94.4676 210.222 94.41 210.25C94.001 210.45 93.665 211.219 93.5 211.687C94.08 211.443 94.878 210.797 94.9 210.434C94.9 210.375 94.9 210.302 94.748 210.234C94.6988 210.207 94.6453 210.189 94.59 210.181L94.595 210.204Z" fill="#263238"/>
<path d="M104.537 215.466C103.792 215.466 102.757 214.51 102.19 213.923C102.176 213.903 102.168 213.879 102.168 213.854C102.168 213.829 102.176 213.805 102.19 213.785C102.203 213.764 102.221 213.746 102.243 213.735C102.265 213.723 102.29 213.718 102.315 213.719C102.579 213.719 104.867 214.062 105.19 214.708C105.224 214.766 105.242 214.832 105.242 214.899C105.242 214.966 105.224 215.032 105.19 215.09C105.141 215.191 105.068 215.277 104.977 215.342C104.886 215.406 104.78 215.447 104.669 215.459L104.537 215.466ZM102.625 214.015C103.456 214.815 104.188 215.268 104.603 215.215C104.676 215.206 104.745 215.178 104.805 215.136C104.865 215.093 104.913 215.037 104.946 214.971C104.961 214.948 104.969 214.922 104.969 214.895C104.969 214.868 104.961 214.842 104.946 214.819C104.774 214.464 103.554 214.161 102.625 214.019V214.015Z" fill="#263238"/>
<path d="M102.701 213.982C102.553 213.986 102.405 213.975 102.259 213.949C102.239 213.946 102.219 213.937 102.203 213.925C102.187 213.912 102.175 213.895 102.167 213.876C102.157 213.857 102.152 213.835 102.152 213.814C102.152 213.792 102.157 213.77 102.167 213.751C102.207 213.705 103.097 212.63 103.941 212.558C104.18 212.539 104.416 212.615 104.6 212.769C104.857 212.993 104.844 213.191 104.778 213.316C104.609 213.764 103.469 213.982 102.701 213.982ZM102.53 213.738C103.268 213.778 104.449 213.538 104.6 213.211C104.6 213.211 104.653 213.106 104.481 212.96C104.413 212.901 104.333 212.856 104.247 212.829C104.161 212.802 104.071 212.793 103.981 212.802C103.412 212.961 102.906 213.29 102.53 213.745V213.738Z" fill="#263238"/>
<path d="M93.494 211.292L87.903 209.71C87.8066 209.681 87.703 209.689 87.6118 209.731C87.5207 209.774 87.4485 209.848 87.409 209.941L85.523 214.181C85.4788 214.29 85.458 214.406 85.4621 214.523C85.4662 214.641 85.495 214.755 85.5467 214.861C85.5983 214.966 85.6717 215.059 85.7619 215.134C85.852 215.209 85.957 215.264 86.07 215.295C88.048 215.809 88.997 215.954 91.457 216.66C92.973 217.082 95.136 217.867 97.226 218.46C99.316 219.053 100.015 217.016 99.204 216.581C95.538 214.643 95.248 213.281 94.246 211.834C94.0665 211.571 93.8003 211.38 93.494 211.293V211.292Z" fill="#B0BEC5"/>
<path d="M102.341 213.155L97.567 209.855C97.4859 209.796 97.3861 209.769 97.2864 209.779C97.1867 209.788 97.094 209.834 97.026 209.908L93.861 213.308C93.7839 213.396 93.7263 213.499 93.6922 213.611C93.6581 213.723 93.6482 213.841 93.6632 213.957C93.6781 214.073 93.7176 214.184 93.7789 214.284C93.8403 214.383 93.9221 214.469 94.019 214.534C95.7 215.661 96.571 216.116 98.674 217.574C99.993 218.474 102.544 220.462 104.324 221.701C106.104 222.94 107.429 221.239 106.797 220.567C103.962 217.541 103.342 215.642 102.874 213.921C102.793 213.609 102.603 213.336 102.34 213.15L102.341 213.155Z" fill="#B0BEC5"/>
<path d="M98.471 207.02L89.871 202.741L90.761 200.407L99.952 204.917L98.471 207.02Z" fill="#B0BEC5"/>
<path d="M87.2829 126.371L86.5579 128.271C86.4849 128.416 86.658 128.571 86.901 128.571H108.712C108.903 128.571 109.061 128.479 109.075 128.36L109.26 126.474C109.26 126.349 109.108 126.237 108.904 126.237H87.625C87.5609 126.231 87.4963 126.24 87.4366 126.264C87.3768 126.288 87.3238 126.326 87.2819 126.375L87.2829 126.371Z" fill="#B0BEC5"/>
<path opacity="0.4" d="M87.2829 126.371L86.5579 128.271C86.4849 128.416 86.658 128.571 86.901 128.571H108.712C108.903 128.571 109.061 128.479 109.075 128.36L109.26 126.474C109.26 126.349 109.108 126.237 108.904 126.237H87.625C87.5609 126.231 87.4963 126.24 87.4366 126.264C87.3768 126.288 87.3238 126.326 87.2819 126.375L87.2829 126.371Z" fill="white"/>
<path d="M90.718 128.75H90.144C90.032 128.75 89.944 128.691 89.953 128.618L90.223 126.172C90.223 126.106 90.329 126.047 90.441 126.047H91.015C91.127 126.047 91.215 126.106 91.206 126.172L90.936 128.618C90.929 128.691 90.83 128.75 90.718 128.75Z" fill="#B0BEC5"/>
<path d="M104.168 128.75H103.601C103.489 128.75 103.401 128.691 103.41 128.618L103.674 126.172C103.674 126.106 103.786 126.047 103.898 126.047H104.465C104.577 126.047 104.665 126.106 104.656 126.172L104.392 128.618C104.372 128.66 104.34 128.695 104.3 128.719C104.26 128.742 104.214 128.753 104.168 128.75Z" fill="#B0BEC5"/>
<path d="M90.216 240.408C99.971 240.408 107.879 239.835 107.879 239.129C107.879 238.423 99.971 237.85 90.216 237.85C80.461 237.85 72.553 238.423 72.553 239.129C72.553 239.835 80.461 240.408 90.216 240.408Z" fill="#F5F5F5"/>
<path d="M100.977 237.323C97.9717 236.534 95.0587 235.427 92.287 234.023C92.228 233.983 92.162 233.964 92.102 233.931V219.785H98.425C98.9044 219.756 99.3546 219.545 99.6837 219.195C100.013 218.845 100.196 218.383 100.196 217.903C100.196 217.422 100.013 216.96 99.6837 216.61C99.3546 216.26 98.9044 216.049 98.425 216.02H92.135V151.52H88.335V216.02H82.052C81.7951 216.004 81.5378 216.041 81.2957 216.129C81.0537 216.216 80.8322 216.353 80.6448 216.529C80.4573 216.705 80.308 216.918 80.2059 217.154C80.1038 217.391 80.0511 217.645 80.0511 217.903C80.0511 218.16 80.1038 218.414 80.2059 218.651C80.308 218.887 80.4573 219.1 80.6448 219.276C80.8322 219.452 81.0537 219.589 81.2957 219.676C81.5378 219.764 81.7951 219.801 82.052 219.785H88.335V233.914C88.276 233.914 88.216 233.967 88.157 234.006C85.3869 235.422 82.4693 236.529 79.457 237.306C79.2455 237.369 79.0637 237.507 78.9447 237.693C78.8257 237.879 78.7774 238.101 78.8085 238.32C78.8396 238.539 78.9481 238.739 79.1142 238.884C79.2803 239.03 79.4931 239.111 79.714 239.113H100.714C100.925 239.099 101.124 239.013 101.279 238.869C101.434 238.725 101.535 238.533 101.565 238.323C101.596 238.114 101.553 237.901 101.445 237.72C101.337 237.538 101.169 237.399 100.971 237.326L100.977 237.323Z" fill="#E0E0E0"/>
<path d="M100.182 144.957H80.265C77.4041 144.957 75.085 147.276 75.085 150.137V153.577C75.085 156.438 77.4041 158.757 80.265 158.757H100.182C103.043 158.757 105.362 156.438 105.362 153.577V150.137C105.362 147.276 103.043 144.957 100.182 144.957Z" fill="#B0BEC5"/>
<path d="M78.283 158.763V159.963C78.283 160.952 79.358 161.756 80.676 161.756H99.797C101.116 161.756 102.19 160.956 102.19 159.963V158.763H78.283Z" fill="#B0BEC5"/>
<path opacity="0.3" d="M78.283 158.763V159.963C78.283 160.952 79.358 161.756 80.676 161.756H99.797C101.116 161.756 102.19 160.956 102.19 159.963V158.763H78.283Z" fill="white"/>
</svg>
