<svg width="33" height="32" viewBox="0 0 33 32" fill="none" xmlns="http://www.w3.org/2000/svg">
<path d="M14.3245 1.49517e-05C12.1881 -0.00318506 10.0824 0.507316 8.18466 1.48848C6.28698 2.46964 4.65301 3.89269 3.42054 5.63766C2.18807 7.38262 1.39322 9.39834 1.10302 11.5149C0.812807 13.6314 1.03575 15.7867 1.75303 17.799C2.47032 19.8113 3.66093 21.6216 5.22448 23.0774C6.78803 24.5331 8.67868 25.5916 10.737 26.1636C12.7954 26.7355 14.961 26.8042 17.0515 26.3638C19.1419 25.9234 21.0958 24.9868 22.7485 23.633L30.7005 31.588C30.8244 31.712 30.9716 31.8103 31.1336 31.8774C31.2955 31.9445 31.4691 31.979 31.6445 31.979C31.8198 31.979 31.9934 31.9445 32.1553 31.8774C32.3173 31.8103 32.4645 31.712 32.5885 31.588C32.7124 31.464 32.8108 31.3169 32.8778 31.1549C32.9449 30.9929 32.9795 30.8193 32.9795 30.644C32.9795 30.4687 32.9449 30.2951 32.8778 30.1331C32.8108 29.9712 32.7124 29.824 32.5885 29.7L24.6325 21.744C26.2296 19.7935 27.24 17.4295 27.5461 14.9272C27.8522 12.4248 27.4414 9.88703 26.3615 7.60905C25.2816 5.33106 23.577 3.40658 21.446 2.05954C19.3151 0.712502 16.8454 -0.00171 14.3245 1.49517e-05ZM14.3245 2.66501C16.4328 2.66501 18.4938 3.29021 20.2468 4.46155C21.9999 5.63288 23.3662 7.29775 24.173 9.24561C24.9798 11.1935 25.1909 13.3368 24.7796 15.4047C24.3683 17.4725 23.353 19.3719 21.8622 20.8628C20.3714 22.3536 18.472 23.3689 16.4041 23.7802C14.3363 24.1915 12.1929 23.9804 10.245 23.1736C8.29719 22.3667 6.63232 21.0004 5.46099 19.2474C4.28965 17.4944 3.66445 15.4334 3.66445 13.325C3.66169 11.9243 3.93553 10.5369 4.47026 9.24234C5.005 7.94776 5.7901 6.77151 6.78052 5.78108C7.77095 4.79066 8.9472 4.00556 10.2418 3.47082C11.5364 2.93609 12.9238 2.66225 14.3245 2.66501Z" fill="#707070"/>
</svg>
