<svg width="27" height="26" viewBox="0 0 27 26" fill="none" xmlns="http://www.w3.org/2000/svg">
<path d="M13 3.03255e-07C10.4288 3.03255e-07 7.91543 0.762437 5.77759 2.1909C3.63975 3.61935 1.97351 5.64968 0.989572 8.02512C0.0056327 10.4006 -0.251811 13.0144 0.249797 15.5362C0.751405 18.0579 1.98953 20.3743 3.80762 22.1924C5.6257 24.0105 7.94208 25.2486 10.4638 25.7502C12.9856 26.2518 15.5995 25.9944 17.9749 25.0104C20.3503 24.0265 22.3807 22.3603 23.8091 20.2224C25.2376 18.0846 26 15.5712 26 13C26.0199 11.602 25.7826 10.2122 25.3 8.9L23.7 10.5C23.9042 11.3175 24.005 12.1574 24 13C24.0213 15.5612 23.1557 18.0509 21.5501 20.0464C19.9445 22.0419 17.6978 23.4204 15.1913 23.9477C12.6849 24.4751 10.0732 24.1188 7.79962 22.9395C5.526 21.7601 3.73053 19.8304 2.718 17.4777C1.70546 15.125 1.53825 12.4945 2.24474 10.0326C2.95123 7.57064 4.48789 5.42904 6.59389 3.9713C8.69988 2.51356 11.2454 1.8295 13.7984 2.03524C16.3515 2.24097 18.7546 3.32383 20.6 5.1L22 3.7C20.8167 2.52191 19.4128 1.58872 17.8684 0.953826C16.3241 0.318936 14.6697 -0.005189 13 3.03255e-07ZM24.3 4.5L13 15.8L8.70001 11.5L7.30001 13L13 18.7L25.7 6L24.3 4.5Z" fill="#0078D7"/>
</svg>
