<svg width="25" height="24" viewBox="0 0 25 24" fill="none" xmlns="http://www.w3.org/2000/svg">
<path d="M1.49002 0C1.35517 0.00546772 1.22796 0.064057 1.13616 0.162979C1.04436 0.261901 0.995417 0.393122 1.00002 0.528V19.378C0.934462 20.5836 1.34123 21.7673 2.13402 22.678C2.96273 23.501 4.07631 23.9737 5.24402 23.998H20.826C20.9697 23.9992 21.1132 23.9881 21.255 23.965C20.1585 23.8339 19.1558 23.2821 18.4583 22.426C17.7608 21.5699 17.4229 20.4764 17.516 19.376V0.528C17.5209 0.393051 17.472 0.26168 17.3802 0.162699C17.2883 0.0637184 17.161 0.00520785 17.026 0H1.49002ZM18.497 3.549V19.378C18.459 19.8317 18.5155 20.2883 18.663 20.719C18.8105 21.1497 19.0458 21.5451 19.354 21.8802C19.6622 22.2153 20.0366 22.4828 20.4535 22.6657C20.8704 22.8486 21.3207 22.9431 21.776 22.943C22.511 22.9204 23.2095 22.6171 23.7277 22.0954C24.2459 21.5736 24.5445 20.8731 24.562 20.138C24.585 19.909 24.593 19.67 24.593 19.412V6.141C24.6065 5.60591 24.4529 5.07992 24.1536 4.63616C23.8543 4.19241 23.4242 3.85295 22.923 3.665C22.5452 3.75422 22.2032 3.95572 21.942 4.243C21.5327 4.77838 21.3119 5.43408 21.314 6.108V18.933C21.3193 19.0006 21.3106 19.0686 21.2883 19.1327C21.2661 19.1968 21.2308 19.2556 21.1847 19.3054C21.1387 19.3552 21.0828 19.395 21.0206 19.4222C20.9585 19.4494 20.8914 19.4634 20.8235 19.4634C20.7557 19.4634 20.6886 19.4494 20.6264 19.4222C20.5642 19.395 20.5084 19.3552 20.4623 19.3054C20.4162 19.2556 20.381 19.1968 20.3587 19.1327C20.3365 19.0686 20.3277 19.0006 20.333 18.933V6.124C20.3207 5.1935 20.623 4.28612 21.191 3.549H18.497ZM4.07902 4.341H13.747C13.8791 4.35251 14.0021 4.41312 14.0917 4.51087C14.1813 4.60861 14.231 4.7364 14.231 4.869C14.231 5.0016 14.1813 5.12939 14.0917 5.22713C14.0021 5.32488 13.8791 5.38549 13.747 5.397H4.07902C3.94692 5.38549 3.82393 5.32488 3.73433 5.22713C3.64472 5.12939 3.59502 5.0016 3.59502 4.869C3.59502 4.7364 3.64472 4.60861 3.73433 4.51087C3.82393 4.41312 3.94692 4.35251 4.07902 4.341ZM4.07902 6.454H13.747C13.8791 6.46551 14.0021 6.52612 14.0917 6.62387C14.1813 6.72161 14.231 6.8494 14.231 6.982C14.231 7.1146 14.1813 7.24239 14.0917 7.34013C14.0021 7.43788 13.8791 7.49849 13.747 7.51H4.07902C3.94692 7.49849 3.82393 7.43788 3.73433 7.34013C3.64472 7.24239 3.59502 7.1146 3.59502 6.982C3.59502 6.8494 3.64472 6.72161 3.73433 6.62387C3.82393 6.52612 3.94692 6.46551 4.07902 6.454ZM4.30902 10.68H7.63402C7.76612 10.6915 7.88911 10.7521 7.97871 10.8499C8.06831 10.9476 8.11802 11.0754 8.11802 11.208C8.11802 11.3406 8.06831 11.4684 7.97871 11.5661C7.88911 11.6639 7.76612 11.7245 7.63402 11.736H4.30902C4.17692 11.7245 4.05393 11.6639 3.96433 11.5661C3.87472 11.4684 3.82502 11.3406 3.82502 11.208C3.82502 11.0754 3.87472 10.9476 3.96433 10.8499C4.05393 10.7521 4.17692 10.6915 4.30902 10.68ZM9.96302 10.68H13.748C13.8801 10.6915 14.0031 10.7521 14.0927 10.8499C14.1823 10.9476 14.232 11.0754 14.232 11.208C14.232 11.3406 14.1823 11.4684 14.0927 11.5661C14.0031 11.6639 13.8801 11.7245 13.748 11.736H9.96202C9.82992 11.7245 9.70693 11.6639 9.61733 11.5661C9.52772 11.4684 9.47802 11.3406 9.47802 11.208C9.47802 11.0754 9.52772 10.9476 9.61733 10.8499C9.70693 10.7521 9.82992 10.6915 9.96202 10.68H9.96302ZM4.30902 12.792H7.63402C7.76612 12.8035 7.88911 12.8641 7.97871 12.9619C8.06831 13.0596 8.11802 13.1874 8.11802 13.32C8.11802 13.4526 8.06831 13.5804 7.97871 13.6781C7.88911 13.7759 7.76612 13.8365 7.63402 13.848H4.30902C4.17692 13.8365 4.05393 13.7759 3.96433 13.6781C3.87472 13.5804 3.82502 13.4526 3.82502 13.32C3.82502 13.1874 3.87472 13.0596 3.96433 12.9619C4.05393 12.8641 4.17692 12.8035 4.30902 12.792ZM9.96302 12.792H13.748C13.8801 12.8035 14.0031 12.8641 14.0927 12.9619C14.1823 13.0596 14.232 13.1874 14.232 13.32C14.232 13.4526 14.1823 13.5804 14.0927 13.6781C14.0031 13.7759 13.8801 13.8365 13.748 13.848H9.96202C9.82992 13.8365 9.70693 13.7759 9.61733 13.6781C9.52772 13.5804 9.47802 13.4526 9.47802 13.32C9.47802 13.1874 9.52772 13.0596 9.61733 12.9619C9.70693 12.8641 9.82992 12.8035 9.96202 12.792H9.96302ZM9.96302 14.792H13.748C13.8801 14.8035 14.0031 14.8641 14.0927 14.9619C14.1823 15.0596 14.232 15.1874 14.232 15.32C14.232 15.4526 14.1823 15.5804 14.0927 15.6781C14.0031 15.7759 13.8801 15.8365 13.748 15.848H9.96202C9.82992 15.8365 9.70693 15.7759 9.61733 15.6781C9.52772 15.5804 9.47802 15.4526 9.47802 15.32C9.47802 15.1874 9.52772 15.0596 9.61733 14.9619C9.70693 14.8641 9.82992 14.8035 9.96202 14.792H9.96302ZM4.30902 14.908H7.63402C7.76612 14.9195 7.88911 14.9801 7.97871 15.0779C8.06831 15.1756 8.11802 15.3034 8.11802 15.436C8.11802 15.5686 8.06831 15.6964 7.97871 15.7941C7.88911 15.8919 7.76612 15.9525 7.63402 15.964H4.30902C4.17692 15.9525 4.05393 15.8919 3.96433 15.7941C3.87472 15.6964 3.82502 15.5686 3.82502 15.436C3.82502 15.3034 3.87472 15.1756 3.96433 15.0779C4.05393 14.9801 4.17692 14.9195 4.30902 14.908ZM9.96302 16.908H13.748C13.8801 16.9195 14.0031 16.9801 14.0927 17.0779C14.1823 17.1756 14.232 17.3034 14.232 17.436C14.232 17.5686 14.1823 17.6964 14.0927 17.7941C14.0031 17.8919 13.8801 17.9525 13.748 17.964H9.96202C9.82992 17.9525 9.70693 17.8919 9.61733 17.7941C9.52772 17.6964 9.47802 17.5686 9.47802 17.436C9.47802 17.3034 9.52772 17.1756 9.61733 17.0779C9.70693 16.9801 9.82992 16.9195 9.96202 16.908H9.96302ZM4.30902 17.019H7.63402C7.76612 17.0305 7.88911 17.0911 7.97871 17.1889C8.06831 17.2866 8.11802 17.4144 8.11802 17.547C8.11802 17.6796 8.06831 17.8074 7.97871 17.9051C7.88911 18.0029 7.76612 18.0635 7.63402 18.075H4.30902C4.17692 18.0635 4.05393 18.0029 3.96433 17.9051C3.87472 17.8074 3.82502 17.6796 3.82502 17.547C3.82502 17.4144 3.87472 17.2866 3.96433 17.1889C4.05393 17.0911 4.17692 17.0305 4.30902 17.019ZM9.96202 18.883H13.747C13.8791 18.8945 14.0021 18.9551 14.0917 19.0529C14.1813 19.1506 14.231 19.2784 14.231 19.411C14.231 19.5436 14.1813 19.6714 14.0917 19.7691C14.0021 19.8669 13.8791 19.9275 13.747 19.939H9.96202C9.82992 19.9275 9.70693 19.8669 9.61733 19.7691C9.52772 19.6714 9.47802 19.5436 9.47802 19.411C9.47802 19.2784 9.52772 19.1506 9.61733 19.0529C9.70693 18.9551 9.82992 18.8945 9.96202 18.883ZM4.30802 19.131H7.63402C7.76612 19.1425 7.88911 19.2031 7.97871 19.3009C8.06831 19.3986 8.11802 19.5264 8.11802 19.659C8.11802 19.7916 8.06831 19.9194 7.97871 20.0171C7.88911 20.1149 7.76612 20.1755 7.63402 20.187H4.30902C4.17692 20.1755 4.05393 20.1149 3.96433 20.0171C3.87472 19.9194 3.82502 19.7916 3.82502 19.659C3.82502 19.5264 3.87472 19.3986 3.96433 19.3009C4.05393 19.2031 4.17692 19.1425 4.30902 19.131H4.30802Z" fill="#707070"/>
</svg>
