<svg width="29" height="24" viewBox="0 0 29 24" fill="none" xmlns="http://www.w3.org/2000/svg">
<path d="M2.182 -0.00100685C1.89542 -0.00113828 1.61162 0.0552112 1.34683 0.16482C1.08204 0.27443 0.841444 0.435149 0.6388 0.637793C0.436157 0.840437 0.275437 1.08103 0.165827 1.34582C0.0562183 1.61061 -0.0001312 1.89441 2.29379e-07 2.18099V21.817C-0.0001312 22.1036 0.0562183 22.3874 0.165827 22.6522C0.275437 22.917 0.436157 23.1575 0.6388 23.3602C0.841444 23.5628 1.08204 23.7236 1.34683 23.8332C1.61162 23.9428 1.89542 23.9991 2.182 23.999H26.182C26.4686 23.9991 26.7524 23.9428 27.0172 23.8332C27.282 23.7236 27.5226 23.5628 27.7252 23.3602C27.9278 23.1575 28.0886 22.917 28.1982 22.6522C28.3078 22.3874 28.3641 22.1036 28.364 21.817V4.36299C28.3641 4.07641 28.3078 3.79261 28.1982 3.52782C28.0886 3.26303 27.9278 3.02244 27.7252 2.81979C27.5226 2.61715 27.282 2.45643 27.0172 2.34682C26.7524 2.23721 26.4686 2.18086 26.182 2.18099H10.035L9.362 1.05799C9.16817 0.734899 8.89395 0.467529 8.56605 0.281938C8.23816 0.0963472 7.86777 -0.00113447 7.491 -0.00100685H2.182ZM13.091 6.54399C14.0759 6.54327 15.0426 6.80954 15.8882 7.31449C16.7338 7.81944 17.4267 8.54418 17.8932 9.4116C18.3597 10.279 18.5823 11.2567 18.5373 12.2405C18.4924 13.2244 18.1816 14.1777 17.638 14.999L21.5 18.864C21.6013 18.9653 21.6817 19.0856 21.7365 19.218C21.7913 19.3503 21.8196 19.4922 21.8196 19.6355C21.8196 19.7788 21.7913 19.9207 21.7365 20.053C21.6817 20.1854 21.6013 20.3057 21.5 20.407C21.3987 20.5083 21.2784 20.5887 21.146 20.6435C21.0137 20.6983 20.8718 20.7266 20.7285 20.7266C20.5852 20.7266 20.4433 20.6983 20.311 20.6435C20.1786 20.5887 20.0583 20.5083 19.957 20.407L16.1 16.546C15.3905 17.0157 14.5808 17.3128 13.7359 17.4136C12.891 17.5144 12.0342 17.416 11.2341 17.1264C10.4339 16.8368 9.7127 16.3639 9.12803 15.7457C8.54337 15.1274 8.11151 14.3809 7.867 13.5659C7.62249 12.7509 7.57212 11.8899 7.7199 11.0519C7.86769 10.2139 8.20954 9.42215 8.7181 8.73992C9.22667 8.0577 9.88784 7.50396 10.6487 7.123C11.4096 6.74204 12.2491 6.54444 13.1 6.54599L13.091 6.54399ZM13.091 8.72599C12.233 8.74099 11.4152 9.09237 10.8137 9.70445C10.2122 10.3165 9.87521 11.1403 9.87521 11.9985C9.87521 12.8566 10.2122 13.6805 10.8137 14.2925C11.4152 14.9046 12.233 15.256 13.091 15.271C14.9 15.272 16.364 11.999 16.364 11.999C16.364 11.999 14.899 8.72599 13.091 8.72599Z" fill="#6798C6"/>
</svg>
