<svg width="24" height="25" viewBox="0 0 24 25" fill="none" xmlns="http://www.w3.org/2000/svg">
<path d="M11.9791 4.53257e-05C11.6259 0.00531242 11.2893 0.150552 11.0431 0.403863C10.7969 0.657175 10.6613 0.997844 10.6661 1.35105V22.668C10.6661 23.0217 10.8066 23.3609 11.0567 23.611C11.3068 23.8611 11.646 24.0015 11.9996 24.0015C12.3533 24.0015 12.6925 23.8611 12.9426 23.611C13.1926 23.3609 13.3331 23.0217 13.3331 22.668V1.35105C13.3356 1.1727 13.3022 0.995686 13.2349 0.83048C13.1677 0.665274 13.068 0.515239 12.9418 0.38926C12.8155 0.263281 12.6653 0.163921 12.4999 0.097066C12.3346 0.0302105 12.1575 -0.00278109 11.9791 4.53257e-05ZM22.6461 5.33005C22.2929 5.33531 21.9563 5.48055 21.7101 5.73386C21.4639 5.98717 21.3283 6.32784 21.3331 6.68105V18.671C21.3331 19.0247 21.4736 19.3639 21.7237 19.614C21.9738 19.8641 22.313 20.0045 22.6666 20.0045C23.0203 20.0045 23.3595 19.8641 23.6096 19.614C23.8596 19.3639 24.0001 19.0247 24.0001 18.671V6.68005C24.0026 6.5017 23.9692 6.32469 23.9019 6.15948C23.8347 5.99427 23.735 5.84424 23.6088 5.71826C23.4825 5.59228 23.3323 5.49292 23.1669 5.42607C23.0015 5.35921 22.8245 5.32622 22.6461 5.32904V5.33005ZM1.31312 7.99404C0.959929 7.99931 0.623265 8.14455 0.377079 8.39786C0.130893 8.65117 -0.00468542 8.99184 0.000123707 9.34505V18.671C0.000123707 19.0247 0.140617 19.3639 0.390697 19.614C0.640777 19.8641 0.979957 20.0045 1.33362 20.0045C1.68729 20.0045 2.02647 19.8641 2.27655 19.614C2.52663 19.3639 2.66712 19.0247 2.66712 18.671V9.34505C2.66955 9.1667 2.63617 8.98969 2.56895 8.82448C2.50173 8.65928 2.40203 8.50924 2.27577 8.38326C2.14952 8.25728 1.99926 8.15792 1.8339 8.09107C1.66855 8.02421 1.49146 7.99122 1.31312 7.99404ZM17.3131 10.659C17.1379 10.6617 16.9649 10.6988 16.804 10.7683C16.6432 10.8379 16.4976 10.9384 16.3756 11.0643C16.2537 11.1901 16.1578 11.3388 16.0933 11.5018C16.0289 11.6647 15.9972 11.8388 16.0001 12.014V18.676C16.0001 19.0297 16.1406 19.3689 16.3907 19.619C16.6408 19.8691 16.98 20.0095 17.3336 20.0095C17.6873 20.0095 18.0265 19.8691 18.2766 19.619C18.5266 19.3689 18.6671 19.0297 18.6671 18.676V12.014C18.6696 11.8357 18.6362 11.6587 18.5689 11.4935C18.5017 11.3283 18.402 11.1782 18.2758 11.0523C18.1495 10.9263 17.9993 10.8269 17.8339 10.7601C17.6686 10.6932 17.4915 10.6602 17.3131 10.663V10.659ZM6.64612 13.323C6.29293 13.3283 5.95626 13.4736 5.71008 13.7269C5.46389 13.9802 5.32831 14.3208 5.33312 14.674V18.674C5.33312 19.0277 5.47362 19.3669 5.7237 19.617C5.97378 19.8671 6.31296 20.0075 6.66662 20.0075C7.02029 20.0075 7.35947 19.8671 7.60955 19.617C7.85963 19.3669 8.00012 19.0277 8.00012 18.674V14.674C8.00255 14.4957 7.96917 14.3187 7.90195 14.1535C7.83473 13.9883 7.73503 13.8382 7.60877 13.7123C7.48252 13.5863 7.33226 13.4869 7.1669 13.4201C7.00155 13.3532 6.82446 13.3202 6.64612 13.323Z" fill="#707070"/>
</svg>
